ISO-10303-21;
HEADER;

/* File generated by Shapr3D Version 26.113.0.11178 */

FILE_DESCRIPTION(('HOOPS Exchange Step'),'2;1');

FILE_NAME('/private/var/mobile/Containers/Data/Application/96EA6774-B8AA-4A85-BAF3-DC6709B29A81/tmp/export/temp_export',
'2026-09-27T21:08:26+02:00',
('mobile'),
('Shapr3D Limited'),
'HOOPS Exchange 2026.3',
'Shapr3D',
'Authorized');

FILE_SCHEMA( ('AP242_MANAGED_MODEL_BASED_3D_ENGINEERING_MIM_LF {1 0 10303 442 1 1 4}') );

ENDSEC;

DATA;
#3=(NAMED_UNIT(*)PLANE_ANGLE_UNIT()SI_UNIT($,.RADIAN.));
#4=PLANE_ANGLE_MEASURE_WITH_UNIT(PLANE_ANGLE_MEASURE(0.0174532925),#3);
#5=(CONVERSION_BASED_UNIT('DEGREE',#4)NAMED_UNIT(#6)PLANE_ANGLE_UNIT());
#6=DIMENSIONAL_EXPONENTS(0.,0.,0.,0.,0.,0.,0.);
#7=(NAMED_UNIT(*)SI_UNIT($,.STERADIAN.)SOLID_ANGLE_UNIT());
#8=(LENGTH_UNIT()NAMED_UNIT(*)SI_UNIT(.MILLI.,.METRE.));
#9=UNCERTAINTY_MEASURE_WITH_UNIT(LENGTH_MEASURE(1.000000E-05),#8,'DISTANCE_ACCURACY_VALUE','Maximum Tolerance applied to model');
#10=(GEOMETRIC_REPRESENTATION_CONTEXT(3)GLOBAL_UNCERTAINTY_ASSIGNED_CONTEXT((#9))GLOBAL_UNIT_ASSIGNED_CONTEXT((#8,#5,#7))REPRESENTATION_CONTEXT('','root'));
#12=CARTESIAN_POINT('',(0.,0.,0.));
#13=DIRECTION('',(0.,0.,1.));
#14=DIRECTION('',(1.,0.,0.));
#15=AXIS2_PLACEMENT_3D('',#12,#13,#14);
#27=CARTESIAN_POINT('',(130.,114.811093478,118.241657704));
#28=DIRECTION('',(0.,1.,0.));
#29=DIRECTION('',(0.,0.,1.));
#30=AXIS2_PLACEMENT_3D('',#27,#28,#29);
#31=PLANE('',#30);
#32=CARTESIAN_POINT('',(115.,114.811093478,88.241657704));
#33=VERTEX_POINT('',#32);
#34=CARTESIAN_POINT('',(145.,114.811093478,88.241657704));
#35=VERTEX_POINT('',#34);
#36=CARTESIAN_POINT('',(115.,114.811093478,88.241657704));
#37=DIRECTION('',(1.,0.,-0.));
#38=VECTOR('',#37,30.);
#39=LINE('',#36,#38);
#40=EDGE_CURVE('',#33,#35,#39,.T.);
#41=ORIENTED_EDGE('',*,*,#40,.T.);
#42=CARTESIAN_POINT('',(145.,114.811093478,118.241657704));
#43=VERTEX_POINT('',#42);
#44=CARTESIAN_POINT('',(145.,114.811093478,118.241657704));
#45=DIRECTION('',(0.,0.,-1.));
#46=VECTOR('',#45,30.);
#47=LINE('',#44,#46);
#48=EDGE_CURVE('',#43,#35,#47,.T.);
#49=ORIENTED_EDGE('',*,*,#48,.F.);
#50=CARTESIAN_POINT('',(115.,114.811093478,118.241657704));
#51=VERTEX_POINT('',#50);
#52=CARTESIAN_POINT('',(115.,114.811093478,118.241657704));
#53=DIRECTION('',(1.,0.,-0.));
#54=VECTOR('',#53,30.);
#55=LINE('',#52,#54);
#56=EDGE_CURVE('',#51,#43,#55,.T.);
#57=ORIENTED_EDGE('',*,*,#56,.F.);
#58=CARTESIAN_POINT('',(115.,114.811093478,118.241657704));
#59=DIRECTION('',(0.,0.,-1.));
#60=VECTOR('',#59,30.);
#61=LINE('',#58,#60);
#62=EDGE_CURVE('',#51,#33,#61,.T.);
#63=ORIENTED_EDGE('',*,*,#62,.T.);
#64=EDGE_LOOP('',(#41,#49,#57,#63));
#65=FACE_BOUND('',#64,.T.);
#66=ADVANCED_FACE('',(#65),#31,.F.);
#67=CARTESIAN_POINT('',(145.,129.811093478,118.241657704));
#68=DIRECTION('',(-1.,0.,0.));
#69=DIRECTION('',(0.,0.,1.));
#70=AXIS2_PLACEMENT_3D('',#67,#68,#69);
#71=PLANE('',#70);
#72=CARTESIAN_POINT('',(145.,144.811093478,88.241657704));
#73=VERTEX_POINT('',#72);
#74=CARTESIAN_POINT('',(145.,114.811093478,88.241657704));
#75=DIRECTION('',(0.,1.,0.));
#76=VECTOR('',#75,30.);
#77=LINE('',#74,#76);
#78=EDGE_CURVE('',#35,#73,#77,.T.);
#79=ORIENTED_EDGE('',*,*,#78,.T.);
#80=CARTESIAN_POINT('',(145.,144.811093478,118.241657704));
#81=VERTEX_POINT('',#80);
#82=CARTESIAN_POINT('',(145.,144.811093478,118.241657704));
#83=DIRECTION('',(0.,0.,-1.));
#84=VECTOR('',#83,30.);
#85=LINE('',#82,#84);
#86=EDGE_CURVE('',#81,#73,#85,.T.);
#87=ORIENTED_EDGE('',*,*,#86,.F.);
#88=CARTESIAN_POINT('',(145.,114.811093478,118.241657704));
#89=DIRECTION('',(0.,1.,0.));
#90=VECTOR('',#89,30.);
#91=LINE('',#88,#90);
#92=EDGE_CURVE('',#43,#81,#91,.T.);
#93=ORIENTED_EDGE('',*,*,#92,.F.);
#94=ORIENTED_EDGE('',*,*,#48,.T.);
#95=EDGE_LOOP('',(#79,#87,#93,#94));
#96=FACE_BOUND('',#95,.T.);
#97=ADVANCED_FACE('',(#96),#71,.F.);
#98=CARTESIAN_POINT('',(130.,144.811093478,118.241657704));
#99=DIRECTION('',(0.,-1.,0.));
#100=DIRECTION('',(0.,0.,-1.));
#101=AXIS2_PLACEMENT_3D('',#98,#99,#100);
#102=PLANE('',#101);
#103=CARTESIAN_POINT('',(115.,144.811093478,88.241657704));
#104=VERTEX_POINT('',#103);
#105=CARTESIAN_POINT('',(145.,144.811093478,88.241657704));
#106=DIRECTION('',(-1.,0.,0.));
#107=VECTOR('',#106,30.);
#108=LINE('',#105,#107);
#109=EDGE_CURVE('',#73,#104,#108,.T.);
#110=ORIENTED_EDGE('',*,*,#109,.T.);
#111=CARTESIAN_POINT('',(115.,144.811093478,118.241657704));
#112=VERTEX_POINT('',#111);
#113=CARTESIAN_POINT('',(115.,144.811093478,118.241657704));
#114=DIRECTION('',(0.,0.,-1.));
#115=VECTOR('',#114,30.);
#116=LINE('',#113,#115);
#117=EDGE_CURVE('',#112,#104,#116,.T.);
#118=ORIENTED_EDGE('',*,*,#117,.F.);
#119=CARTESIAN_POINT('',(145.,144.811093478,118.241657704));
#120=DIRECTION('',(-1.,0.,0.));
#121=VECTOR('',#120,30.);
#122=LINE('',#119,#121);
#123=EDGE_CURVE('',#81,#112,#122,.T.);
#124=ORIENTED_EDGE('',*,*,#123,.F.);
#125=ORIENTED_EDGE('',*,*,#86,.T.);
#126=EDGE_LOOP('',(#110,#118,#124,#125));
#127=FACE_BOUND('',#126,.T.);
#128=ADVANCED_FACE('',(#127),#102,.F.);
#129=CARTESIAN_POINT('',(115.,129.811093478,118.241657704));
#130=DIRECTION('',(1.,0.,0.));
#131=DIRECTION('',(0.,0.,-1.));
#132=AXIS2_PLACEMENT_3D('',#129,#130,#131);
#133=PLANE('',#132);
#134=CARTESIAN_POINT('',(115.,144.811093478,88.241657704));
#135=DIRECTION('',(0.,-1.,0.));
#136=VECTOR('',#135,30.);
#137=LINE('',#134,#136);
#138=EDGE_CURVE('',#104,#33,#137,.T.);
#139=ORIENTED_EDGE('',*,*,#138,.T.);
#140=ORIENTED_EDGE('',*,*,#62,.F.);
#141=CARTESIAN_POINT('',(115.,144.811093478,118.241657704));
#142=DIRECTION('',(0.,-1.,0.));
#143=VECTOR('',#142,30.);
#144=LINE('',#141,#143);
#145=EDGE_CURVE('',#112,#51,#144,.T.);
#146=ORIENTED_EDGE('',*,*,#145,.F.);
#147=ORIENTED_EDGE('',*,*,#117,.T.);
#148=EDGE_LOOP('',(#139,#140,#146,#147));
#149=FACE_BOUND('',#148,.T.);
#150=ADVANCED_FACE('',(#149),#133,.F.);
#151=CARTESIAN_POINT('',(-5.,-95.188906522,118.241657704));
#152=DIRECTION('',(0.,0.,1.));
#153=DIRECTION('',(1.,0.,0.));
#154=AXIS2_PLACEMENT_3D('',#151,#152,#153);
#155=PLANE('',#154);
#156=ORIENTED_EDGE('',*,*,#56,.T.);
#157=ORIENTED_EDGE('',*,*,#92,.T.);
#158=ORIENTED_EDGE('',*,*,#123,.T.);
#159=ORIENTED_EDGE('',*,*,#145,.T.);
#160=EDGE_LOOP('',(#156,#157,#158,#159));
#161=FACE_BOUND('',#160,.T.);
#162=ADVANCED_FACE('',(#161),#155,.T.);
#163=CARTESIAN_POINT('',(-5.,-95.188906522,88.241657704));
#164=DIRECTION('',(0.,0.,1.));
#165=DIRECTION('',(1.,0.,0.));
#166=AXIS2_PLACEMENT_3D('',#163,#164,#165);
#167=PLANE('',#166);
#168=ORIENTED_EDGE('',*,*,#40,.F.);
#169=ORIENTED_EDGE('',*,*,#138,.F.);
#170=ORIENTED_EDGE('',*,*,#109,.F.);
#171=ORIENTED_EDGE('',*,*,#78,.F.);
#172=EDGE_LOOP('',(#168,#169,#170,#171));
#173=FACE_BOUND('',#172,.T.);
#174=ADVANCED_FACE('',(#173),#167,.F.);
#175=CLOSED_SHELL('',(#66,#97,#128,#150,#162,#174));
#176=MANIFOLD_SOLID_BREP('Body 07',#175);
#177=COLOUR_RGB('',0.627451003,0.627451003,0.643137276);
#178=FILL_AREA_STYLE_COLOUR('',#177);
#179=FILL_AREA_STYLE('',(#178));
#180=SURFACE_STYLE_FILL_AREA(#179);
#181=SURFACE_SIDE_STYLE('',(#180));
#182=SURFACE_STYLE_USAGE(.BOTH.,#181);
#183=PRESENTATION_STYLE_ASSIGNMENT((#182));
#26=STYLED_ITEM('',(#183),#176);
#185=CARTESIAN_POINT('',(131.558289316,131.984303369,84.));
#186=DIRECTION('',(0.,0.,-1.));
#187=DIRECTION('',(-1.,0.,0.));
#188=AXIS2_PLACEMENT_3D('',#185,#186,#187);
#189=CYLINDRICAL_SURFACE('',#188,27.);
#190=CARTESIAN_POINT('',(104.558289316,131.984303369,77.));
#191=VERTEX_POINT('',#190);
#192=CARTESIAN_POINT('',(104.558289316,131.984303369,84.));
#193=VERTEX_POINT('',#192);
#194=CARTESIAN_POINT('',(104.558289316,131.984303369,77.));
#195=DIRECTION('',(-0.,-0.,1.));
#196=VECTOR('',#195,7.);
#197=LINE('',#194,#196);
#198=EDGE_CURVE('',#191,#193,#197,.T.);
#199=ORIENTED_EDGE('',*,*,#198,.T.);
#200=CARTESIAN_POINT('',(131.374980857,104.984925635,84.));
#201=VERTEX_POINT('',#200);
#202=CARTESIAN_POINT('',(131.558289316,131.984303369,84.));
#203=DIRECTION('',(0.,0.,1.));
#204=DIRECTION('',(-0.006789202,-0.999976953,0.));
#205=AXIS2_PLACEMENT_3D('',#202,#203,#204);
#206=CIRCLE('',#205,27.);
#207=EDGE_CURVE('',#201,#193,#206,.T.);
#208=ORIENTED_EDGE('',*,*,#207,.F.);
#209=CARTESIAN_POINT('',(131.558289316,131.984303369,84.));
#210=DIRECTION('',(0.,0.,1.));
#211=DIRECTION('',(-0.006789202,-0.999976953,0.));
#212=AXIS2_PLACEMENT_3D('',#209,#210,#211);
#213=CIRCLE('',#212,27.);
#214=EDGE_CURVE('',#193,#201,#213,.T.);
#215=ORIENTED_EDGE('',*,*,#214,.F.);
#216=ORIENTED_EDGE('',*,*,#198,.F.);
#217=CARTESIAN_POINT('',(131.374980857,104.984925635,77.));
#218=VERTEX_POINT('',#217);
#219=CARTESIAN_POINT('',(131.558289316,131.984303369,77.));
#220=DIRECTION('',(0.,0.,1.));
#221=DIRECTION('',(-0.006789202,-0.999976953,0.));
#222=AXIS2_PLACEMENT_3D('',#219,#220,#221);
#223=CIRCLE('',#222,27.);
#224=EDGE_CURVE('',#191,#218,#223,.T.);
#225=ORIENTED_EDGE('',*,*,#224,.T.);
#226=CARTESIAN_POINT('',(131.558289316,131.984303369,77.));
#227=DIRECTION('',(0.,0.,1.));
#228=DIRECTION('',(-0.006789202,-0.999976953,0.));
#229=AXIS2_PLACEMENT_3D('',#226,#227,#228);
#230=CIRCLE('',#229,27.);
#231=EDGE_CURVE('',#218,#191,#230,.T.);
#232=ORIENTED_EDGE('',*,*,#231,.T.);
#233=EDGE_LOOP('',(#199,#208,#215,#216,#225,#232));
#234=FACE_BOUND('',#233,.T.);
#235=ADVANCED_FACE('',(#234),#189,.T.);
#236=CARTESIAN_POINT('',(0.,0.,84.));
#237=DIRECTION('',(0.,0.,1.));
#238=DIRECTION('',(1.,0.,0.));
#239=AXIS2_PLACEMENT_3D('',#236,#237,#238);
#240=PLANE('',#239);
#241=ORIENTED_EDGE('',*,*,#207,.T.);
#242=ORIENTED_EDGE('',*,*,#214,.T.);
#243=EDGE_LOOP('',(#241,#242));
#244=FACE_BOUND('',#243,.T.);
#245=ADVANCED_FACE('',(#244),#240,.T.);
#246=CARTESIAN_POINT('',(0.,0.,77.));
#247=DIRECTION('',(0.,0.,1.));
#248=DIRECTION('',(1.,0.,0.));
#249=AXIS2_PLACEMENT_3D('',#246,#247,#248);
#250=PLANE('',#249);
#251=ORIENTED_EDGE('',*,*,#224,.F.);
#252=ORIENTED_EDGE('',*,*,#231,.F.);
#253=EDGE_LOOP('',(#251,#252));
#254=FACE_BOUND('',#253,.T.);
#255=ADVANCED_FACE('',(#254),#250,.F.);
#256=CLOSED_SHELL('',(#235,#245,#255));
#257=MANIFOLD_SOLID_BREP('Body 06',#256);
#184=STYLED_ITEM('',(#183),#257);
#259=CARTESIAN_POINT('',(119.938166139,129.561172519,119.255827187));
#260=DIRECTION('',(-1.,0.,0.));
#261=DIRECTION('',(0.,0.,1.));
#262=AXIS2_PLACEMENT_3D('',#259,#260,#261);
#263=PLANE('',#262);
#264=CARTESIAN_POINT('',(119.938166139,120.061172519,118.255827187));
#265=VERTEX_POINT('',#264);
#266=CARTESIAN_POINT('',(119.938166139,139.061172519,118.255827187));
#267=VERTEX_POINT('',#266);
#268=CARTESIAN_POINT('',(119.938166139,120.061172519,118.255827187));
#269=DIRECTION('',(0.,1.,0.));
#270=VECTOR('',#269,19.);
#271=LINE('',#268,#270);
#272=EDGE_CURVE('',#265,#267,#271,.T.);
#273=ORIENTED_EDGE('',*,*,#272,.F.);
#274=CARTESIAN_POINT('',(119.938166139,120.061172519,119.255827187));
#275=VERTEX_POINT('',#274);
#276=CARTESIAN_POINT('',(119.938166139,120.061172519,119.255827187));
#277=DIRECTION('',(0.,0.,-1.));
#278=VECTOR('',#277,1.);
#279=LINE('',#276,#278);
#280=EDGE_CURVE('',#275,#265,#279,.T.);
#281=ORIENTED_EDGE('',*,*,#280,.F.);
#282=CARTESIAN_POINT('',(119.938166139,139.061172519,119.255827187));
#283=VERTEX_POINT('',#282);
#284=CARTESIAN_POINT('',(119.938166139,120.061172519,119.255827187));
#285=DIRECTION('',(0.,1.,0.));
#286=VECTOR('',#285,19.);
#287=LINE('',#284,#286);
#288=EDGE_CURVE('',#275,#283,#287,.T.);
#289=ORIENTED_EDGE('',*,*,#288,.T.);
#290=CARTESIAN_POINT('',(119.938166139,139.061172519,119.255827187));
#291=DIRECTION('',(0.,0.,-1.));
#292=VECTOR('',#291,1.);
#293=LINE('',#290,#292);
#294=EDGE_CURVE('',#283,#267,#293,.T.);
#295=ORIENTED_EDGE('',*,*,#294,.T.);
#296=EDGE_LOOP('',(#273,#281,#289,#295));
#297=FACE_BOUND('',#296,.T.);
#298=ADVANCED_FACE('',(#297),#263,.T.);
#299=CARTESIAN_POINT('',(129.438166139,120.061172519,119.255827187));
#300=DIRECTION('',(0.,-1.,0.));
#301=DIRECTION('',(0.,0.,-1.));
#302=AXIS2_PLACEMENT_3D('',#299,#300,#301);
#303=PLANE('',#302);
#304=CARTESIAN_POINT('',(138.938166139,120.061172519,118.255827187));
#305=VERTEX_POINT('',#304);
#306=CARTESIAN_POINT('',(138.938166139,120.061172519,118.255827187));
#307=DIRECTION('',(-1.,0.,0.));
#308=VECTOR('',#307,19.);
#309=LINE('',#306,#308);
#310=EDGE_CURVE('',#305,#265,#309,.T.);
#311=ORIENTED_EDGE('',*,*,#310,.F.);
#312=CARTESIAN_POINT('',(138.938166139,120.061172519,119.255827187));
#313=VERTEX_POINT('',#312);
#314=CARTESIAN_POINT('',(138.938166139,120.061172519,119.255827187));
#315=DIRECTION('',(0.,0.,-1.));
#316=VECTOR('',#315,1.);
#317=LINE('',#314,#316);
#318=EDGE_CURVE('',#313,#305,#317,.T.);
#319=ORIENTED_EDGE('',*,*,#318,.F.);
#320=CARTESIAN_POINT('',(138.938166139,120.061172519,119.255827187));
#321=DIRECTION('',(-1.,0.,0.));
#322=VECTOR('',#321,19.);
#323=LINE('',#320,#322);
#324=EDGE_CURVE('',#313,#275,#323,.T.);
#325=ORIENTED_EDGE('',*,*,#324,.T.);
#326=ORIENTED_EDGE('',*,*,#280,.T.);
#327=EDGE_LOOP('',(#311,#319,#325,#326));
#328=FACE_BOUND('',#327,.T.);
#329=ADVANCED_FACE('',(#328),#303,.T.);
#330=CARTESIAN_POINT('',(138.938166139,129.561172519,119.255827187));
#331=DIRECTION('',(1.,0.,0.));
#332=DIRECTION('',(0.,0.,-1.));
#333=AXIS2_PLACEMENT_3D('',#330,#331,#332);
#334=PLANE('',#333);
#335=CARTESIAN_POINT('',(138.938166139,139.061172519,118.255827187));
#336=VERTEX_POINT('',#335);
#337=CARTESIAN_POINT('',(138.938166139,139.061172519,118.255827187));
#338=DIRECTION('',(0.,-1.,0.));
#339=VECTOR('',#338,19.);
#340=LINE('',#337,#339);
#341=EDGE_CURVE('',#336,#305,#340,.T.);
#342=ORIENTED_EDGE('',*,*,#341,.F.);
#343=CARTESIAN_POINT('',(138.938166139,139.061172519,119.255827187));
#344=VERTEX_POINT('',#343);
#345=CARTESIAN_POINT('',(138.938166139,139.061172519,119.255827187));
#346=DIRECTION('',(0.,0.,-1.));
#347=VECTOR('',#346,1.);
#348=LINE('',#345,#347);
#349=EDGE_CURVE('',#344,#336,#348,.T.);
#350=ORIENTED_EDGE('',*,*,#349,.F.);
#351=CARTESIAN_POINT('',(138.938166139,139.061172519,119.255827187));
#352=DIRECTION('',(0.,-1.,0.));
#353=VECTOR('',#352,19.);
#354=LINE('',#351,#353);
#355=EDGE_CURVE('',#344,#313,#354,.T.);
#356=ORIENTED_EDGE('',*,*,#355,.T.);
#357=ORIENTED_EDGE('',*,*,#318,.T.);
#358=EDGE_LOOP('',(#342,#350,#356,#357));
#359=FACE_BOUND('',#358,.T.);
#360=ADVANCED_FACE('',(#359),#334,.T.);
#361=CARTESIAN_POINT('',(129.438166139,139.061172519,119.255827187));
#362=DIRECTION('',(0.,1.,0.));
#363=DIRECTION('',(0.,0.,1.));
#364=AXIS2_PLACEMENT_3D('',#361,#362,#363);
#365=PLANE('',#364);
#366=CARTESIAN_POINT('',(119.938166139,139.061172519,118.255827187));
#367=DIRECTION('',(1.,0.,-0.));
#368=VECTOR('',#367,19.);
#369=LINE('',#366,#368);
#370=EDGE_CURVE('',#267,#336,#369,.T.);
#371=ORIENTED_EDGE('',*,*,#370,.F.);
#372=ORIENTED_EDGE('',*,*,#294,.F.);
#373=CARTESIAN_POINT('',(119.938166139,139.061172519,119.255827187));
#374=DIRECTION('',(1.,0.,-0.));
#375=VECTOR('',#374,19.);
#376=LINE('',#373,#375);
#377=EDGE_CURVE('',#283,#344,#376,.T.);
#378=ORIENTED_EDGE('',*,*,#377,.T.);
#379=ORIENTED_EDGE('',*,*,#349,.T.);
#380=EDGE_LOOP('',(#371,#372,#378,#379));
#381=FACE_BOUND('',#380,.T.);
#382=ADVANCED_FACE('',(#381),#365,.T.);
#383=CARTESIAN_POINT('',(-53.061833861,-88.938827481,119.255827187));
#384=DIRECTION('',(0.,0.,1.));
#385=DIRECTION('',(-1.,0.,0.));
#386=AXIS2_PLACEMENT_3D('',#383,#384,#385);
#387=PLANE('',#386);
#388=ORIENTED_EDGE('',*,*,#288,.F.);
#389=ORIENTED_EDGE('',*,*,#324,.F.);
#390=ORIENTED_EDGE('',*,*,#355,.F.);
#391=ORIENTED_EDGE('',*,*,#377,.F.);
#392=EDGE_LOOP('',(#388,#389,#390,#391));
#393=FACE_BOUND('',#392,.T.);
#394=ADVANCED_FACE('',(#393),#387,.T.);
#395=CARTESIAN_POINT('',(-53.061833861,-88.938827481,118.255827187));
#396=DIRECTION('',(0.,0.,1.));
#397=DIRECTION('',(-1.,0.,0.));
#398=AXIS2_PLACEMENT_3D('',#395,#396,#397);
#399=PLANE('',#398);
#400=ORIENTED_EDGE('',*,*,#272,.T.);
#401=ORIENTED_EDGE('',*,*,#370,.T.);
#402=ORIENTED_EDGE('',*,*,#341,.T.);
#403=ORIENTED_EDGE('',*,*,#310,.T.);
#404=EDGE_LOOP('',(#400,#401,#402,#403));
#405=FACE_BOUND('',#404,.T.);
#406=ADVANCED_FACE('',(#405),#399,.F.);
#407=CLOSED_SHELL('',(#298,#329,#360,#382,#394,#406));
#408=MANIFOLD_SOLID_BREP('Body 05',#407);
#258=STYLED_ITEM('',(#183),#408);
#410=CARTESIAN_POINT('',(131.37,131.2,8.));
#411=DIRECTION('',(0.,0.,-1.));
#412=DIRECTION('',(-1.,0.,0.));
#413=AXIS2_PLACEMENT_3D('',#410,#411,#412);
#414=CYLINDRICAL_SURFACE('',#413,33.);
#415=CARTESIAN_POINT('',(98.37,131.2,0.));
#416=VERTEX_POINT('',#415);
#417=CARTESIAN_POINT('',(98.37,131.2,129.970562748));
#418=VERTEX_POINT('',#417);
#419=CARTESIAN_POINT('',(98.37,131.2,-0.));
#420=DIRECTION('',(-0.,-0.,1.));
#421=VECTOR('',#420,129.970562748);
#422=LINE('',#419,#421);
#423=EDGE_CURVE('',#416,#418,#422,.T.);
#424=ORIENTED_EDGE('',*,*,#423,.T.);
#425=CARTESIAN_POINT('',(131.37,131.2,129.970562748));
#426=DIRECTION('',(0.,0.,-1.));
#427=DIRECTION('',(-1.,0.,0.));
#428=AXIS2_PLACEMENT_3D('',#425,#426,#427);
#429=CIRCLE('',#428,33.);
#430=EDGE_CURVE('',#418,#418,#429,.T.);
#431=ORIENTED_EDGE('',*,*,#430,.T.);
#432=ORIENTED_EDGE('',*,*,#423,.F.);
#433=CARTESIAN_POINT('',(164.37,131.2,0.));
#434=VERTEX_POINT('',#433);
#435=CARTESIAN_POINT('',(131.37,131.2,0.));
#436=DIRECTION('',(0.,0.,1.));
#437=DIRECTION('',(1.,0.,-0.));
#438=AXIS2_PLACEMENT_3D('',#435,#436,#437);
#439=CIRCLE('',#438,33.);
#440=EDGE_CURVE('',#416,#434,#439,.T.);
#441=ORIENTED_EDGE('',*,*,#440,.T.);
#442=CARTESIAN_POINT('',(131.37,131.2,0.));
#443=DIRECTION('',(0.,0.,1.));
#444=DIRECTION('',(1.,0.,-0.));
#445=AXIS2_PLACEMENT_3D('',#442,#443,#444);
#446=CIRCLE('',#445,33.);
#447=EDGE_CURVE('',#434,#416,#446,.T.);
#448=ORIENTED_EDGE('',*,*,#447,.T.);
#449=EDGE_LOOP('',(#424,#431,#432,#441,#448));
#450=FACE_BOUND('',#449,.T.);
#451=CARTESIAN_POINT('',(123.637772016,163.281344274,43.));
#452=VERTEX_POINT('',#451);
#453=CARTESIAN_POINT('',(123.637772016,163.281344274,68.));
#454=VERTEX_POINT('',#453);
#455=CARTESIAN_POINT('',(123.637772016,163.281344274,43.));
#456=DIRECTION('',(-0.,-0.,1.));
#457=VECTOR('',#456,25.);
#458=LINE('',#455,#457);
#459=EDGE_CURVE('',#452,#454,#458,.T.);
#460=ORIENTED_EDGE('',*,*,#459,.F.);
#461=CARTESIAN_POINT('',(138.829172496,163.345928913,43.));
#462=VERTEX_POINT('',#461);
#463=CARTESIAN_POINT('',(131.37,131.2,43.));
#464=DIRECTION('',(0.,0.,1.));
#465=DIRECTION('',(1.,0.,-0.));
#466=AXIS2_PLACEMENT_3D('',#463,#464,#465);
#467=CIRCLE('',#466,33.);
#468=EDGE_CURVE('',#462,#452,#467,.T.);
#469=ORIENTED_EDGE('',*,*,#468,.F.);
#470=CARTESIAN_POINT('',(138.829172496,163.345928913,68.));
#471=VERTEX_POINT('',#470);
#472=CARTESIAN_POINT('',(138.829172496,163.345928913,68.));
#473=DIRECTION('',(0.,0.,-1.));
#474=VECTOR('',#473,25.);
#475=LINE('',#472,#474);
#476=EDGE_CURVE('',#471,#462,#475,.T.);
#477=ORIENTED_EDGE('',*,*,#476,.F.);
#478=CARTESIAN_POINT('',(131.37,131.2,68.));
#479=DIRECTION('',(0.,0.,-1.));
#480=DIRECTION('',(-1.,0.,0.));
#481=AXIS2_PLACEMENT_3D('',#478,#479,#480);
#482=CIRCLE('',#481,33.);
#483=EDGE_CURVE('',#454,#471,#482,.T.);
#484=ORIENTED_EDGE('',*,*,#483,.F.);
#485=EDGE_LOOP('',(#460,#469,#477,#484));
#486=FACE_BOUND('',#485,.T.);
#487=ADVANCED_FACE('',(#450,#486),#414,.T.);
#488=CARTESIAN_POINT('',(131.558289316,131.984303369,79.));
#489=DIRECTION('',(0.,0.,-1.));
#490=DIRECTION('',(-1.,0.,0.));
#491=AXIS2_PLACEMENT_3D('',#488,#489,#490);
#492=CYLINDRICAL_SURFACE('',#491,27.);
#493=CARTESIAN_POINT('',(104.558289316,131.984303369,8.));
#494=VERTEX_POINT('',#493);
#495=CARTESIAN_POINT('',(104.557980336,131.984303362,136.147385382));
#496=VERTEX_POINT('',#495);
#497=CARTESIAN_POINT('',(104.558289316,131.984303369,8.));
#498=DIRECTION('',(-0.,-0.,1.));
#499=VECTOR('',#498,128.147385382);
#500=LINE('',#497,#499);
#501=EDGE_CURVE('',#494,#496,#500,.T.);
#502=ORIENTED_EDGE('',*,*,#501,.F.);
#503=CARTESIAN_POINT('',(158.558289316,131.984303369,8.));
#504=VERTEX_POINT('',#503);
#505=CARTESIAN_POINT('',(131.558289316,131.984303369,8.));
#506=DIRECTION('',(-0.,-0.,-1.));
#507=DIRECTION('',(1.,0.,-0.));
#508=AXIS2_PLACEMENT_3D('',#505,#506,#507);
#509=CIRCLE('',#508,27.);
#510=EDGE_CURVE('',#494,#504,#509,.T.);
#511=ORIENTED_EDGE('',*,*,#510,.T.);
#512=CARTESIAN_POINT('',(131.558289316,131.984303369,8.));
#513=DIRECTION('',(-0.,-0.,-1.));
#514=DIRECTION('',(1.,0.,-0.));
#515=AXIS2_PLACEMENT_3D('',#512,#513,#514);
#516=CIRCLE('',#515,27.);
#517=EDGE_CURVE('',#504,#494,#516,.T.);
#518=ORIENTED_EDGE('',*,*,#517,.T.);
#519=ORIENTED_EDGE('',*,*,#501,.T.);
#520=CARTESIAN_POINT('',(104.569440346,131.199999983,136.17024753));
#521=VERTEX_POINT('',#520);
#522=CARTESIAN_POINT('',(152.366882557,114.77958171,136.315371623));
#523=CARTESIAN_POINT('',(153.503247149,116.153980497,136.266904107));
#524=CARTESIAN_POINT('',(154.488279841,117.619922169,136.216944207));
#525=CARTESIAN_POINT('',(155.326270793,119.174812491,136.165562377));
#526=CARTESIAN_POINT('',(155.745266269,119.952257652,136.139871462));
#527=CARTESIAN_POINT('',(156.127432978,120.752578833,136.11380685));
#528=CARTESIAN_POINT('',(156.471064497,121.574998263,136.087406361));
#529=CARTESIAN_POINT('',(156.814696016,122.397417692,136.061005872));
#530=CARTESIAN_POINT('',(157.114850296,123.229968935,136.034653202));
#531=CARTESIAN_POINT('',(157.373019068,124.07230439,136.008347606));
#532=CARTESIAN_POINT('',(157.889356612,125.756975298,135.955736416));
#533=CARTESIAN_POINT('',(158.238930702,127.480508436,135.903313351));
#534=CARTESIAN_POINT('',(158.418826381,129.243582914,135.851075725));
#535=CARTESIAN_POINT('',(158.4638003,129.684351534,135.838016319));
#536=CARTESIAN_POINT('',(158.498116896,130.128524593,135.824941923));
#537=CARTESIAN_POINT('',(158.521386685,130.573140626,135.8119407));
#538=CARTESIAN_POINT('',(158.544656474,131.017756658,135.798939476));
#539=CARTESIAN_POINT('',(158.556842958,131.461167782,135.786059242));
#540=CARTESIAN_POINT('',(158.5581681,131.903398116,135.773297196));
#541=CARTESIAN_POINT('',(158.560818384,132.787858785,135.747773103));
#542=CARTESIAN_POINT('',(158.520100543,133.667604703,135.722721255));
#543=CARTESIAN_POINT('',(158.436802979,134.542721485,135.698129589));
#544=CARTESIAN_POINT('',(158.353505416,135.417838267,135.673537922));
#545=CARTESIAN_POINT('',(158.227626516,136.288325744,135.649406732));
#546=CARTESIAN_POINT('',(158.058720214,137.154135305,135.625736659));
#547=CARTESIAN_POINT('',(157.974267062,137.587040086,135.613901622));
#548=CARTESIAN_POINT('',(157.879038041,138.01877332,135.602182066));
#549=CARTESIAN_POINT('',(157.77285802,138.449315951,135.590579305));
#550=CARTESIAN_POINT('',(157.666677998,138.879858582,135.578976544));
#551=CARTESIAN_POINT('',(157.549182521,139.310377401,135.567459702));
#552=CARTESIAN_POINT('',(157.421458376,139.736495716,135.556146055));
#553=CARTESIAN_POINT('',(156.910561795,141.440968978,135.510891469));
#554=CARTESIAN_POINT('',(156.240594957,143.069447172,135.469014858));
#555=CARTESIAN_POINT('',(155.416776157,144.624422264,135.430363827));
#556=CARTESIAN_POINT('',(155.004866757,145.40190981,135.411038311));
#557=CARTESIAN_POINT('',(154.554213899,146.160887589,135.39252516));
#558=CARTESIAN_POINT('',(154.063767087,146.900853584,135.374840836));
#559=CARTESIAN_POINT('',(153.818543681,147.270836581,135.365998675));
#560=CARTESIAN_POINT('',(153.562616007,147.637008948,135.35734213));
#561=CARTESIAN_POINT('',(153.299030471,147.994930279,135.348975892));
#562=CARTESIAN_POINT('',(153.035444934,148.35285161,135.340609655));
#563=CARTESIAN_POINT('',(152.763999283,148.702946931,135.332523066));
#564=CARTESIAN_POINT('',(152.484836735,149.04535882,135.324710225));
#565=CARTESIAN_POINT('',(151.368186542,150.41500638,135.293458858));
#566=CARTESIAN_POINT('',(150.129164522,151.662812832,135.266549732));
#567=CARTESIAN_POINT('',(148.767871053,152.7888773,135.243941241));
#568=CARTESIAN_POINT('',(148.427547686,153.070393416,135.238289118));
#569=CARTESIAN_POINT('',(148.079513731,153.344232334,135.232908205));
#570=CARTESIAN_POINT('',(147.723629427,153.610254888,135.22780298));
#571=CARTESIAN_POINT('',(147.367745123,153.876277441,135.222697755));
#572=CARTESIAN_POINT('',(147.003286983,154.134908932,135.217861085));
#573=CARTESIAN_POINT('',(146.634819889,154.38292444,135.213352661));
#574=CARTESIAN_POINT('',(145.8978857,154.878955456,135.204335813));
#575=CARTESIAN_POINT('',(145.141737092,155.335206451,135.196577751));
#576=CARTESIAN_POINT('',(144.366897303,155.752760648,135.190040886));
#577=CARTESIAN_POINT('',(142.817217724,156.587869042,135.176967157));
#578=CARTESIAN_POINT('',(141.193313015,157.269307383,135.168743245));
#579=CARTESIAN_POINT('',(139.492792094,157.792125161,135.165511553));
#580=CARTESIAN_POINT('',(139.067661864,157.922829605,135.16470363));
#581=CARTESIAN_POINT('',(138.637581186,158.043477949,135.164212919));
#582=CARTESIAN_POINT('',(138.207454992,158.152769044,135.164042831));
#583=CARTESIAN_POINT('',(137.777328799,158.26206014,135.163872743));
#584=CARTESIAN_POINT('',(137.345964651,158.360383514,135.164020446));
#585=CARTESIAN_POINT('',(136.91338289,158.447919388,135.164480593));
#586=CARTESIAN_POINT('',(136.048219369,158.622991136,135.165400887));
#587=CARTESIAN_POINT('',(135.178194003,158.754989127,135.167569117));
#588=CARTESIAN_POINT('',(134.30336128,158.84439607,135.17097206));
#589=CARTESIAN_POINT('',(133.428528557,158.933803013,135.174375002));
#590=CARTESIAN_POINT('',(132.548888622,158.980620189,135.179012484));
#591=CARTESIAN_POINT('',(131.664356536,158.98409503,135.184908493));
#592=CARTESIAN_POINT('',(131.222090494,158.98583245,135.187856498));
#593=CARTESIAN_POINT('',(130.778599236,158.976714997,135.191119599));
#594=CARTESIAN_POINT('',(130.333858257,158.956525535,135.194704535));
#595=CARTESIAN_POINT('',(129.889117277,158.936336072,135.198289472));
#596=CARTESIAN_POINT('',(129.444152787,158.905057942,135.202189736));
#597=CARTESIAN_POINT('',(129.002747385,158.863090645,135.20636874));
#598=CARTESIAN_POINT('',(127.237125776,158.695221454,135.223084756));
#599=CARTESIAN_POINT('',(125.510459715,158.35719842,135.244357121));
#600=CARTESIAN_POINT('',(123.822013279,157.852237826,135.270131621));
#601=CARTESIAN_POINT('',(122.977790062,157.599757528,135.283018871));
#602=CARTESIAN_POINT('',(122.143189525,157.3052468,135.297039432));
#603=CARTESIAN_POINT('',(121.318544943,156.967250256,135.31223788));
#604=CARTESIAN_POINT('',(120.493900362,156.629253712,135.327436329));
#605=CARTESIAN_POINT('',(119.690786001,156.252382016,135.343603129));
#606=CARTESIAN_POINT('',(118.911842928,155.839436857,135.360645576));
#607=CARTESIAN_POINT('',(117.353956781,155.013546537,135.39473047));
#608=CARTESIAN_POINT('',(115.887544529,154.042522046,135.432376559));
#609=CARTESIAN_POINT('',(114.513852066,152.924388345,135.473676159));
#610=CARTESIAN_POINT('',(113.827005834,152.365321494,135.494325958));
#611=CARTESIAN_POINT('',(113.161316138,151.766489277,135.515988676));
#612=CARTESIAN_POINT('',(112.533233158,151.142780296,135.538131741));
#613=CARTESIAN_POINT('',(111.905150178,150.519071315,135.560274806));
#614=CARTESIAN_POINT('',(111.31130523,149.8681687,135.582987121));
#615=CARTESIAN_POINT('',(110.751012622,149.190617227,135.606262124));
#616=CARTESIAN_POINT('',(110.190720015,148.513065753,135.629537126));
#617=CARTESIAN_POINT('',(109.663981633,147.808863917,135.653374602));
#618=CARTESIAN_POINT('',(109.17108587,147.077782817,135.677783928));
#619=CARTESIAN_POINT('',(108.924637989,146.712242267,135.689988592));
#620=CARTESIAN_POINT('',(108.686665715,146.339970019,135.702336327));
#621=CARTESIAN_POINT('',(108.457298554,145.960863238,135.714829937));
#622=CARTESIAN_POINT('',(108.227931392,145.581756457,135.727323547));
#623=CARTESIAN_POINT('',(108.006728786,145.194988727,135.739989804));
#624=CARTESIAN_POINT('',(107.795355861,144.803156423,135.752743017));
#625=CARTESIAN_POINT('',(106.949864165,143.235827203,135.80375587));
#626=CARTESIAN_POINT('',(106.271342764,141.610542258,135.855427042));
#627=CARTESIAN_POINT('',(105.753728936,139.929406488,135.907749132));
#628=CARTESIAN_POINT('',(105.494922022,139.088838603,135.933910176));
#629=CARTESIAN_POINT('',(105.276637634,138.234205387,135.960234783));
#630=CARTESIAN_POINT('',(105.099898062,137.365152022,135.986727675));
#631=CARTESIAN_POINT('',(105.011528276,136.930625339,135.999974121));
#632=CARTESIAN_POINT('',(104.933393369,136.491268168,136.013299365));
#633=CARTESIAN_POINT('',(104.866394051,136.051578517,136.026566341));
#634=CARTESIAN_POINT('',(104.799394733,135.611888866,136.039833316));
#635=CARTESIAN_POINT('',(104.743509962,135.172233559,136.053031418));
#636=CARTESIAN_POINT('',(104.69852759,134.732611936,136.066161851));
#637=CARTESIAN_POINT('',(104.518598101,132.974125445,136.118683583));
#638=CARTESIAN_POINT('',(104.511556333,131.216173157,136.17013362));
#639=CARTESIAN_POINT('',(104.676667497,129.45875227,136.220498379));
#640=CARTESIAN_POINT('',(104.717945288,129.019397048,136.233089568));
#641=CARTESIAN_POINT('',(104.770079291,128.580075337,136.245612291));
#642=CARTESIAN_POINT('',(104.833256346,128.140787697,136.258064855));
#643=CARTESIAN_POINT('',(104.896433401,127.701500058,136.270517419));
#644=CARTESIAN_POINT('',(104.970910974,127.261084632,136.282932227));
#645=CARTESIAN_POINT('',(105.055829248,126.824883794,136.295157894));
#646=CARTESIAN_POINT('',(105.225665796,125.952482119,136.319609228));
#647=CARTESIAN_POINT('',(105.437221574,125.09485685,136.343365231));
#648=CARTESIAN_POINT('',(105.689292245,124.251581304,136.366441392));
#649=CARTESIAN_POINT('',(106.193433588,122.565030211,136.412593713));
#650=CARTESIAN_POINT('',(106.858473621,120.935466871,136.456047254));
#651=CARTESIAN_POINT('',(107.689035852,119.364527656,136.496679984));
#652=CARTESIAN_POINT('',(107.896676409,118.971792852,136.506838167));
#653=CARTESIAN_POINT('',(108.115219022,118.582077888,136.516835248));
#654=CARTESIAN_POINT('',(108.341922767,118.200242855,136.526545904));
#655=CARTESIAN_POINT('',(108.568626512,117.818407822,136.536256559));
#656=CARTESIAN_POINT('',(108.80394459,117.443508621,136.545705491));
#657=CARTESIAN_POINT('',(109.047728247,117.075425465,136.554896525));
#658=CARTESIAN_POINT('',(109.53529556,116.339259153,136.573278593));
#659=CARTESIAN_POINT('',(110.056665309,115.630308812,136.590630829));
#660=CARTESIAN_POINT('',(110.611403444,114.948224822,136.606960426));
#661=CARTESIAN_POINT('',(111.166141579,114.266140831,136.623290023));
#662=CARTESIAN_POINT('',(111.754247631,113.610922825,136.638597468));
#663=CARTESIAN_POINT('',(112.376254502,112.982999719,136.652860203));
#664=CARTESIAN_POINT('',(112.687257938,112.669038165,136.659991571));
#665=CARTESIAN_POINT('',(113.006751631,112.36191246,136.666861476));
#666=CARTESIAN_POINT('',(113.334897857,112.061753237,136.673464079));
#667=CARTESIAN_POINT('',(113.663044083,111.761594015,136.680066682));
#668=CARTESIAN_POINT('',(113.999971659,111.468397417,136.686401251));
#669=CARTESIAN_POINT('',(114.34180642,111.185440018,136.692397138));
#670=CARTESIAN_POINT('',(115.709145466,110.053610421,136.716380683));
#671=CARTESIAN_POINT('',(117.168731833,109.070457326,136.735297314));
#672=CARTESIAN_POINT('',(118.718511493,108.232669626,136.749227429));
#673=CARTESIAN_POINT('',(119.493401323,107.813775775,136.756192486));
#674=CARTESIAN_POINT('',(120.291000417,107.431482676,136.76190266));
#675=CARTESIAN_POINT('',(121.112053779,107.086991002,136.766313787));
#676=CARTESIAN_POINT('',(121.52258046,106.914745164,136.76851935));
#677=CARTESIAN_POINT('',(121.93808965,106.752411236,136.770392703));
#678=CARTESIAN_POINT('',(122.354955209,106.601264911,136.771921552));
#679=CARTESIAN_POINT('',(122.771820769,106.450118587,136.773450401));
#680=CARTESIAN_POINT('',(123.191064309,106.309721951,136.774640389));
#681=CARTESIAN_POINT('',(123.612648975,106.179908403,136.77549683));
#682=CARTESIAN_POINT('',(125.298987638,105.660654207,136.778922593));
#683=CARTESIAN_POINT('',(127.022449757,105.309217045,136.777055732));
#684=CARTESIAN_POINT('',(128.783406338,105.127274038,136.769846998));
#685=CARTESIAN_POINT('',(129.663884628,105.036302535,136.76624263));
#686=CARTESIAN_POINT('',(130.558189906,104.988285362,136.761253809));
#687=CARTESIAN_POINT('',(131.444289666,104.984544035,136.755001522));
#688=CARTESIAN_POINT('',(132.330389426,104.980802707,136.748749235));
#689=CARTESIAN_POINT('',(133.211247996,105.020597752,136.741234028));
#690=CARTESIAN_POINT('',(134.08698008,105.102976708,136.732487258));
#691=CARTESIAN_POINT('',(135.838444246,105.267734621,136.714993718));
#692=CARTESIAN_POINT('',(137.570654154,105.601897356,136.692590116));
#693=CARTESIAN_POINT('',(139.279406944,106.111840351,136.665155077));
#694=CARTESIAN_POINT('',(140.988159735,106.621783347,136.637720038));
#695=CARTESIAN_POINT('',(142.618609582,107.290907616,136.606141576));
#696=CARTESIAN_POINT('',(144.173890799,108.112843438,136.570630595));
#697=CARTESIAN_POINT('',(144.951531407,108.523811348,136.552875104));
#698=CARTESIAN_POINT('',(145.710240428,108.97326559,136.534129034));
#699=CARTESIAN_POINT('',(146.449577219,109.46210222,136.5143754));
#700=CARTESIAN_POINT('',(146.819245615,109.706520534,136.504498583));
#701=CARTESIAN_POINT('',(147.184726158,109.961295565,136.494350107));
#702=CARTESIAN_POINT('',(147.543691963,110.225008752,136.483989365));
#703=CARTESIAN_POINT('',(147.902657768,110.488721938,136.473628623));
#704=CARTESIAN_POINT('',(148.254036788,110.760529799,136.463088186));
#705=CARTESIAN_POINT('',(148.597935076,111.040319211,136.452371323));
#706=CARTESIAN_POINT('',(149.973528225,112.159476859,136.409503869));
#707=CARTESIAN_POINT('',(151.230515866,113.405180385,136.363839229));
#708=CARTESIAN_POINT('',(152.366882557,114.77958171,136.315371623));
#709=B_SPLINE_CURVE_WITH_KNOTS('',3,(#522,#523,#524,#525,#526,#527,#528,#529,#530,#531,#532,#533,#534,#535,#536,#537,#538,#539,#540,#541,#542,#543,#544,#545,#546,#547,
#548,#549,#550,#551,#552,#553,#554,#555,#556,#557,#558,#559,#560,#561,#562,#563,#564,#565,#566,#567,#568,#569,#570,#571,#572,
#573,#574,#575,#576,#577,#578,#579,#580,#581,#582,#583,#584,#585,#586,#587,#588,#589,#590,#591,#592,#593,#594,#595,#596,#597,
#598,#599,#600,#601,#602,#603,#604,#605,#606,#607,#608,#609,#610,#611,#612,#613,#614,#615,#616,#617,#618,#619,#620,#621,#622,
#623,#624,#625,#626,#627,#628,#629,#630,#631,#632,#633,#634,#635,#636,#637,#638,#639,#640,#641,#642,#643,#644,#645,#646,#647,
#648,#649,#650,#651,#652,#653,#654,#655,#656,#657,#658,#659,#660,#661,#662,#663,#664,#665,#666,#667,#668,#669,#670,#671,#672,
#673,#674,#675,#676,#677,#678,#679,#680,#681,#682,#683,#684,#685,#686,#687,#688,#689,#690,#691,#692,#693,#694,#695,#696,#697,
#698,#699,#700,#701,#702,#703,#704,#705,#706,#707,#708),.UNSPECIFIED.,.T.,.F.,(4,3,3,3,3,3,3,3,3,3,3,3,3,3,3,3,3,3,3,3,3,3,3,3,3,3,
3,3,3,3,3,3,3,3,3,3,3,3,3,3,3,3,3,3,3,3,3,3,3,3,3,
3,3,3,3,3,3,3,3,3,3,3,4),(0.,0.005294616,0.007941923,0.010589231,0.015883847,0.017207501,0.018531154,0.021178462,0.02382577,0.025149424,0.026473078,0.031767693,0.034415001,0.035738655,0.037062309,0.042356924,0.043680578,0.045004232,0.04765154,0.052946155,0.054269809,0.055593463,0.058240771,0.060888079,0.062211733,0.063535387,
0.068830002,0.07147731,0.074124618,0.079419233,0.082066541,0.084713849,0.087361156,0.08868481,0.090008464,0.09530308,0.097950388,0.099274041,0.100597695,0.105892311,0.107215965,0.108539619,0.111186926,0.116481542,0.117805196,0.11912885,0.121776158,0.124423465,0.125747119,0.127070773,0.132365389,
0.135012696,0.13633635,0.137660004,0.14295462,0.145601927,0.148249235,0.153543851,0.158838466,0.161485774,0.162809428,0.164133082,0.169427697),.UNSPECIFIED.);
#710=EDGE_CURVE('',#496,#521,#709,.T.);
#711=ORIENTED_EDGE('',*,*,#710,.T.);
#712=CARTESIAN_POINT('',(152.366882557,114.77958171,136.315371623));
#713=VERTEX_POINT('',#712);
#714=CARTESIAN_POINT('',(152.366882557,114.77958171,136.315371623));
#715=CARTESIAN_POINT('',(153.503247149,116.153980497,136.266904107));
#716=CARTESIAN_POINT('',(154.488279841,117.619922169,136.216944207));
#717=CARTESIAN_POINT('',(155.326270793,119.174812491,136.165562377));
#718=CARTESIAN_POINT('',(155.745266269,119.952257652,136.139871462));
#719=CARTESIAN_POINT('',(156.127432978,120.752578833,136.11380685));
#720=CARTESIAN_POINT('',(156.471064497,121.574998263,136.087406361));
#721=CARTESIAN_POINT('',(156.814696016,122.397417692,136.061005872));
#722=CARTESIAN_POINT('',(157.114850296,123.229968935,136.034653202));
#723=CARTESIAN_POINT('',(157.373019068,124.07230439,136.008347606));
#724=CARTESIAN_POINT('',(157.889356612,125.756975298,135.955736416));
#725=CARTESIAN_POINT('',(158.238930702,127.480508436,135.903313351));
#726=CARTESIAN_POINT('',(158.418826381,129.243582914,135.851075725));
#727=CARTESIAN_POINT('',(158.4638003,129.684351534,135.838016319));
#728=CARTESIAN_POINT('',(158.498116896,130.128524593,135.824941923));
#729=CARTESIAN_POINT('',(158.521386685,130.573140626,135.8119407));
#730=CARTESIAN_POINT('',(158.544656474,131.017756658,135.798939476));
#731=CARTESIAN_POINT('',(158.556842958,131.461167782,135.786059242));
#732=CARTESIAN_POINT('',(158.5581681,131.903398116,135.773297196));
#733=CARTESIAN_POINT('',(158.560818384,132.787858785,135.747773103));
#734=CARTESIAN_POINT('',(158.520100543,133.667604703,135.722721255));
#735=CARTESIAN_POINT('',(158.436802979,134.542721485,135.698129589));
#736=CARTESIAN_POINT('',(158.353505416,135.417838267,135.673537922));
#737=CARTESIAN_POINT('',(158.227626516,136.288325744,135.649406732));
#738=CARTESIAN_POINT('',(158.058720214,137.154135305,135.625736659));
#739=CARTESIAN_POINT('',(157.974267062,137.587040086,135.613901622));
#740=CARTESIAN_POINT('',(157.879038041,138.01877332,135.602182066));
#741=CARTESIAN_POINT('',(157.77285802,138.449315951,135.590579305));
#742=CARTESIAN_POINT('',(157.666677998,138.879858582,135.578976544));
#743=CARTESIAN_POINT('',(157.549182521,139.310377401,135.567459702));
#744=CARTESIAN_POINT('',(157.421458376,139.736495716,135.556146055));
#745=CARTESIAN_POINT('',(156.910561795,141.440968978,135.510891469));
#746=CARTESIAN_POINT('',(156.240594957,143.069447172,135.469014858));
#747=CARTESIAN_POINT('',(155.416776157,144.624422264,135.430363827));
#748=CARTESIAN_POINT('',(155.004866757,145.40190981,135.411038311));
#749=CARTESIAN_POINT('',(154.554213899,146.160887589,135.39252516));
#750=CARTESIAN_POINT('',(154.063767087,146.900853584,135.374840836));
#751=CARTESIAN_POINT('',(153.818543681,147.270836581,135.365998675));
#752=CARTESIAN_POINT('',(153.562616007,147.637008948,135.35734213));
#753=CARTESIAN_POINT('',(153.299030471,147.994930279,135.348975892));
#754=CARTESIAN_POINT('',(153.035444934,148.35285161,135.340609655));
#755=CARTESIAN_POINT('',(152.763999283,148.702946931,135.332523066));
#756=CARTESIAN_POINT('',(152.484836735,149.04535882,135.324710225));
#757=CARTESIAN_POINT('',(151.368186542,150.41500638,135.293458858));
#758=CARTESIAN_POINT('',(150.129164522,151.662812832,135.266549732));
#759=CARTESIAN_POINT('',(148.767871053,152.7888773,135.243941241));
#760=CARTESIAN_POINT('',(148.427547686,153.070393416,135.238289118));
#761=CARTESIAN_POINT('',(148.079513731,153.344232334,135.232908205));
#762=CARTESIAN_POINT('',(147.723629427,153.610254888,135.22780298));
#763=CARTESIAN_POINT('',(147.367745123,153.876277441,135.222697755));
#764=CARTESIAN_POINT('',(147.003286983,154.134908932,135.217861085));
#765=CARTESIAN_POINT('',(146.634819889,154.38292444,135.213352661));
#766=CARTESIAN_POINT('',(145.8978857,154.878955456,135.204335813));
#767=CARTESIAN_POINT('',(145.141737092,155.335206451,135.196577751));
#768=CARTESIAN_POINT('',(144.366897303,155.752760648,135.190040886));
#769=CARTESIAN_POINT('',(142.817217724,156.587869042,135.176967157));
#770=CARTESIAN_POINT('',(141.193313015,157.269307383,135.168743245));
#771=CARTESIAN_POINT('',(139.492792094,157.792125161,135.165511553));
#772=CARTESIAN_POINT('',(139.067661864,157.922829605,135.16470363));
#773=CARTESIAN_POINT('',(138.637581186,158.043477949,135.164212919));
#774=CARTESIAN_POINT('',(138.207454992,158.152769044,135.164042831));
#775=CARTESIAN_POINT('',(137.777328799,158.26206014,135.163872743));
#776=CARTESIAN_POINT('',(137.345964651,158.360383514,135.164020446));
#777=CARTESIAN_POINT('',(136.91338289,158.447919388,135.164480593));
#778=CARTESIAN_POINT('',(136.048219369,158.622991136,135.165400887));
#779=CARTESIAN_POINT('',(135.178194003,158.754989127,135.167569117));
#780=CARTESIAN_POINT('',(134.30336128,158.84439607,135.17097206));
#781=CARTESIAN_POINT('',(133.428528557,158.933803013,135.174375002));
#782=CARTESIAN_POINT('',(132.548888622,158.980620189,135.179012484));
#783=CARTESIAN_POINT('',(131.664356536,158.98409503,135.184908493));
#784=CARTESIAN_POINT('',(131.222090494,158.98583245,135.187856498));
#785=CARTESIAN_POINT('',(130.778599236,158.976714997,135.191119599));
#786=CARTESIAN_POINT('',(130.333858257,158.956525535,135.194704535));
#787=CARTESIAN_POINT('',(129.889117277,158.936336072,135.198289472));
#788=CARTESIAN_POINT('',(129.444152787,158.905057942,135.202189736));
#789=CARTESIAN_POINT('',(129.002747385,158.863090645,135.20636874));
#790=CARTESIAN_POINT('',(127.237125776,158.695221454,135.223084756));
#791=CARTESIAN_POINT('',(125.510459715,158.35719842,135.244357121));
#792=CARTESIAN_POINT('',(123.822013279,157.852237826,135.270131621));
#793=CARTESIAN_POINT('',(122.977790062,157.599757528,135.283018871));
#794=CARTESIAN_POINT('',(122.143189525,157.3052468,135.297039432));
#795=CARTESIAN_POINT('',(121.318544943,156.967250256,135.31223788));
#796=CARTESIAN_POINT('',(120.493900362,156.629253712,135.327436329));
#797=CARTESIAN_POINT('',(119.690786001,156.252382016,135.343603129));
#798=CARTESIAN_POINT('',(118.911842928,155.839436857,135.360645576));
#799=CARTESIAN_POINT('',(117.353956781,155.013546537,135.39473047));
#800=CARTESIAN_POINT('',(115.887544529,154.042522046,135.432376559));
#801=CARTESIAN_POINT('',(114.513852066,152.924388345,135.473676159));
#802=CARTESIAN_POINT('',(113.827005834,152.365321494,135.494325958));
#803=CARTESIAN_POINT('',(113.161316138,151.766489277,135.515988676));
#804=CARTESIAN_POINT('',(112.533233158,151.142780296,135.538131741));
#805=CARTESIAN_POINT('',(111.905150178,150.519071315,135.560274806));
#806=CARTESIAN_POINT('',(111.31130523,149.8681687,135.582987121));
#807=CARTESIAN_POINT('',(110.751012622,149.190617227,135.606262124));
#808=CARTESIAN_POINT('',(110.190720015,148.513065753,135.629537126));
#809=CARTESIAN_POINT('',(109.663981633,147.808863917,135.653374602));
#810=CARTESIAN_POINT('',(109.17108587,147.077782817,135.677783928));
#811=CARTESIAN_POINT('',(108.924637989,146.712242267,135.689988592));
#812=CARTESIAN_POINT('',(108.686665715,146.339970019,135.702336327));
#813=CARTESIAN_POINT('',(108.457298554,145.960863238,135.714829937));
#814=CARTESIAN_POINT('',(108.227931392,145.581756457,135.727323547));
#815=CARTESIAN_POINT('',(108.006728786,145.194988727,135.739989804));
#816=CARTESIAN_POINT('',(107.795355861,144.803156423,135.752743017));
#817=CARTESIAN_POINT('',(106.949864165,143.235827203,135.80375587));
#818=CARTESIAN_POINT('',(106.271342764,141.610542258,135.855427042));
#819=CARTESIAN_POINT('',(105.753728936,139.929406488,135.907749132));
#820=CARTESIAN_POINT('',(105.494922022,139.088838603,135.933910176));
#821=CARTESIAN_POINT('',(105.276637634,138.234205387,135.960234783));
#822=CARTESIAN_POINT('',(105.099898062,137.365152022,135.986727675));
#823=CARTESIAN_POINT('',(105.011528276,136.930625339,135.999974121));
#824=CARTESIAN_POINT('',(104.933393369,136.491268168,136.013299365));
#825=CARTESIAN_POINT('',(104.866394051,136.051578517,136.026566341));
#826=CARTESIAN_POINT('',(104.799394733,135.611888866,136.039833316));
#827=CARTESIAN_POINT('',(104.743509962,135.172233559,136.053031418));
#828=CARTESIAN_POINT('',(104.69852759,134.732611936,136.066161851));
#829=CARTESIAN_POINT('',(104.518598101,132.974125445,136.118683583));
#830=CARTESIAN_POINT('',(104.511556333,131.216173157,136.17013362));
#831=CARTESIAN_POINT('',(104.676667497,129.45875227,136.220498379));
#832=CARTESIAN_POINT('',(104.717945288,129.019397048,136.233089568));
#833=CARTESIAN_POINT('',(104.770079291,128.580075337,136.245612291));
#834=CARTESIAN_POINT('',(104.833256346,128.140787697,136.258064855));
#835=CARTESIAN_POINT('',(104.896433401,127.701500058,136.270517419));
#836=CARTESIAN_POINT('',(104.970910974,127.261084632,136.282932227));
#837=CARTESIAN_POINT('',(105.055829248,126.824883794,136.295157894));
#838=CARTESIAN_POINT('',(105.225665796,125.952482119,136.319609228));
#839=CARTESIAN_POINT('',(105.437221574,125.09485685,136.343365231));
#840=CARTESIAN_POINT('',(105.689292245,124.251581304,136.366441392));
#841=CARTESIAN_POINT('',(106.193433588,122.565030211,136.412593713));
#842=CARTESIAN_POINT('',(106.858473621,120.935466871,136.456047254));
#843=CARTESIAN_POINT('',(107.689035852,119.364527656,136.496679984));
#844=CARTESIAN_POINT('',(107.896676409,118.971792852,136.506838167));
#845=CARTESIAN_POINT('',(108.115219022,118.582077888,136.516835248));
#846=CARTESIAN_POINT('',(108.341922767,118.200242855,136.526545904));
#847=CARTESIAN_POINT('',(108.568626512,117.818407822,136.536256559));
#848=CARTESIAN_POINT('',(108.80394459,117.443508621,136.545705491));
#849=CARTESIAN_POINT('',(109.047728247,117.075425465,136.554896525));
#850=CARTESIAN_POINT('',(109.53529556,116.339259153,136.573278593));
#851=CARTESIAN_POINT('',(110.056665309,115.630308812,136.590630829));
#852=CARTESIAN_POINT('',(110.611403444,114.948224822,136.606960426));
#853=CARTESIAN_POINT('',(111.166141579,114.266140831,136.623290023));
#854=CARTESIAN_POINT('',(111.754247631,113.610922825,136.638597468));
#855=CARTESIAN_POINT('',(112.376254502,112.982999719,136.652860203));
#856=CARTESIAN_POINT('',(112.687257938,112.669038165,136.659991571));
#857=CARTESIAN_POINT('',(113.006751631,112.36191246,136.666861476));
#858=CARTESIAN_POINT('',(113.334897857,112.061753237,136.673464079));
#859=CARTESIAN_POINT('',(113.663044083,111.761594015,136.680066682));
#860=CARTESIAN_POINT('',(113.999971659,111.468397417,136.686401251));
#861=CARTESIAN_POINT('',(114.34180642,111.185440018,136.692397138));
#862=CARTESIAN_POINT('',(115.709145466,110.053610421,136.716380683));
#863=CARTESIAN_POINT('',(117.168731833,109.070457326,136.735297314));
#864=CARTESIAN_POINT('',(118.718511493,108.232669626,136.749227429));
#865=CARTESIAN_POINT('',(119.493401323,107.813775775,136.756192486));
#866=CARTESIAN_POINT('',(120.291000417,107.431482676,136.76190266));
#867=CARTESIAN_POINT('',(121.112053779,107.086991002,136.766313787));
#868=CARTESIAN_POINT('',(121.52258046,106.914745164,136.76851935));
#869=CARTESIAN_POINT('',(121.93808965,106.752411236,136.770392703));
#870=CARTESIAN_POINT('',(122.354955209,106.601264911,136.771921552));
#871=CARTESIAN_POINT('',(122.771820769,106.450118587,136.773450401));
#872=CARTESIAN_POINT('',(123.191064309,106.309721951,136.774640389));
#873=CARTESIAN_POINT('',(123.612648975,106.179908403,136.77549683));
#874=CARTESIAN_POINT('',(125.298987638,105.660654207,136.778922593));
#875=CARTESIAN_POINT('',(127.022449757,105.309217045,136.777055732));
#876=CARTESIAN_POINT('',(128.783406338,105.127274038,136.769846998));
#877=CARTESIAN_POINT('',(129.663884628,105.036302535,136.76624263));
#878=CARTESIAN_POINT('',(130.558189906,104.988285362,136.761253809));
#879=CARTESIAN_POINT('',(131.444289666,104.984544035,136.755001522));
#880=CARTESIAN_POINT('',(132.330389426,104.980802707,136.748749235));
#881=CARTESIAN_POINT('',(133.211247996,105.020597752,136.741234028));
#882=CARTESIAN_POINT('',(134.08698008,105.102976708,136.732487258));
#883=CARTESIAN_POINT('',(135.838444246,105.267734621,136.714993718));
#884=CARTESIAN_POINT('',(137.570654154,105.601897356,136.692590116));
#885=CARTESIAN_POINT('',(139.279406944,106.111840351,136.665155077));
#886=CARTESIAN_POINT('',(140.988159735,106.621783347,136.637720038));
#887=CARTESIAN_POINT('',(142.618609582,107.290907616,136.606141576));
#888=CARTESIAN_POINT('',(144.173890799,108.112843438,136.570630595));
#889=CARTESIAN_POINT('',(144.951531407,108.523811348,136.552875104));
#890=CARTESIAN_POINT('',(145.710240428,108.97326559,136.534129034));
#891=CARTESIAN_POINT('',(146.449577219,109.46210222,136.5143754));
#892=CARTESIAN_POINT('',(146.819245615,109.706520534,136.504498583));
#893=CARTESIAN_POINT('',(147.184726158,109.961295565,136.494350107));
#894=CARTESIAN_POINT('',(147.543691963,110.225008752,136.483989365));
#895=CARTESIAN_POINT('',(147.902657768,110.488721938,136.473628623));
#896=CARTESIAN_POINT('',(148.254036788,110.760529799,136.463088186));
#897=CARTESIAN_POINT('',(148.597935076,111.040319211,136.452371323));
#898=CARTESIAN_POINT('',(149.973528225,112.159476859,136.409503869));
#899=CARTESIAN_POINT('',(151.230515866,113.405180385,136.363839229));
#900=CARTESIAN_POINT('',(152.366882557,114.77958171,136.315371623));
#901=B_SPLINE_CURVE_WITH_KNOTS('',3,(#714,#715,#716,#717,#718,#719,#720,#721,#722,#723,#724,#725,#726,#727,#728,#729,#730,#731,#732,#733,#734,#735,#736,#737,#738,#739,
#740,#741,#742,#743,#744,#745,#746,#747,#748,#749,#750,#751,#752,#753,#754,#755,#756,#757,#758,#759,#760,#761,#762,#763,#764,
#765,#766,#767,#768,#769,#770,#771,#772,#773,#774,#775,#776,#777,#778,#779,#780,#781,#782,#783,#784,#785,#786,#787,#788,#789,
#790,#791,#792,#793,#794,#795,#796,#797,#798,#799,#800,#801,#802,#803,#804,#805,#806,#807,#808,#809,#810,#811,#812,#813,#814,
#815,#816,#817,#818,#819,#820,#821,#822,#823,#824,#825,#826,#827,#828,#829,#830,#831,#832,#833,#834,#835,#836,#837,#838,#839,
#840,#841,#842,#843,#844,#845,#846,#847,#848,#849,#850,#851,#852,#853,#854,#855,#856,#857,#858,#859,#860,#861,#862,#863,#864,
#865,#866,#867,#868,#869,#870,#871,#872,#873,#874,#875,#876,#877,#878,#879,#880,#881,#882,#883,#884,#885,#886,#887,#888,#889,
#890,#891,#892,#893,#894,#895,#896,#897,#898,#899,#900),.UNSPECIFIED.,.T.,.F.,(4,3,3,3,3,3,3,3,3,3,3,3,3,3,3,3,3,3,3,3,3,3,3,3,3,3,
3,3,3,3,3,3,3,3,3,3,3,3,3,3,3,3,3,3,3,3,3,3,3,3,3,
3,3,3,3,3,3,3,3,3,3,3,4),(0.,0.005294616,0.007941923,0.010589231,0.015883847,0.017207501,0.018531154,0.021178462,0.02382577,0.025149424,0.026473078,0.031767693,0.034415001,0.035738655,0.037062309,0.042356924,0.043680578,0.045004232,0.04765154,0.052946155,0.054269809,0.055593463,0.058240771,0.060888079,0.062211733,0.063535387,
0.068830002,0.07147731,0.074124618,0.079419233,0.082066541,0.084713849,0.087361156,0.08868481,0.090008464,0.09530308,0.097950388,0.099274041,0.100597695,0.105892311,0.107215965,0.108539619,0.111186926,0.116481542,0.117805196,0.11912885,0.121776158,0.124423465,0.125747119,0.127070773,0.132365389,
0.135012696,0.13633635,0.137660004,0.14295462,0.145601927,0.148249235,0.153543851,0.158838466,0.161485774,0.162809428,0.164133082,0.169427697),.UNSPECIFIED.);
#902=EDGE_CURVE('',#521,#713,#901,.T.);
#903=ORIENTED_EDGE('',*,*,#902,.T.);
#904=CARTESIAN_POINT('',(152.366882557,114.77958171,136.315371623));
#905=CARTESIAN_POINT('',(153.503247149,116.153980497,136.266904107));
#906=CARTESIAN_POINT('',(154.488279841,117.619922169,136.216944207));
#907=CARTESIAN_POINT('',(155.326270793,119.174812491,136.165562377));
#908=CARTESIAN_POINT('',(155.745266269,119.952257652,136.139871462));
#909=CARTESIAN_POINT('',(156.127432978,120.752578833,136.11380685));
#910=CARTESIAN_POINT('',(156.471064497,121.574998263,136.087406361));
#911=CARTESIAN_POINT('',(156.814696016,122.397417692,136.061005872));
#912=CARTESIAN_POINT('',(157.114850296,123.229968935,136.034653202));
#913=CARTESIAN_POINT('',(157.373019068,124.07230439,136.008347606));
#914=CARTESIAN_POINT('',(157.889356612,125.756975298,135.955736416));
#915=CARTESIAN_POINT('',(158.238930702,127.480508436,135.903313351));
#916=CARTESIAN_POINT('',(158.418826381,129.243582914,135.851075725));
#917=CARTESIAN_POINT('',(158.4638003,129.684351534,135.838016319));
#918=CARTESIAN_POINT('',(158.498116896,130.128524593,135.824941923));
#919=CARTESIAN_POINT('',(158.521386685,130.573140626,135.8119407));
#920=CARTESIAN_POINT('',(158.544656474,131.017756658,135.798939476));
#921=CARTESIAN_POINT('',(158.556842958,131.461167782,135.786059242));
#922=CARTESIAN_POINT('',(158.5581681,131.903398116,135.773297196));
#923=CARTESIAN_POINT('',(158.560818384,132.787858785,135.747773103));
#924=CARTESIAN_POINT('',(158.520100543,133.667604703,135.722721255));
#925=CARTESIAN_POINT('',(158.436802979,134.542721485,135.698129589));
#926=CARTESIAN_POINT('',(158.353505416,135.417838267,135.673537922));
#927=CARTESIAN_POINT('',(158.227626516,136.288325744,135.649406732));
#928=CARTESIAN_POINT('',(158.058720214,137.154135305,135.625736659));
#929=CARTESIAN_POINT('',(157.974267062,137.587040086,135.613901622));
#930=CARTESIAN_POINT('',(157.879038041,138.01877332,135.602182066));
#931=CARTESIAN_POINT('',(157.77285802,138.449315951,135.590579305));
#932=CARTESIAN_POINT('',(157.666677998,138.879858582,135.578976544));
#933=CARTESIAN_POINT('',(157.549182521,139.310377401,135.567459702));
#934=CARTESIAN_POINT('',(157.421458376,139.736495716,135.556146055));
#935=CARTESIAN_POINT('',(156.910561795,141.440968978,135.510891469));
#936=CARTESIAN_POINT('',(156.240594957,143.069447172,135.469014858));
#937=CARTESIAN_POINT('',(155.416776157,144.624422264,135.430363827));
#938=CARTESIAN_POINT('',(155.004866757,145.40190981,135.411038311));
#939=CARTESIAN_POINT('',(154.554213899,146.160887589,135.39252516));
#940=CARTESIAN_POINT('',(154.063767087,146.900853584,135.374840836));
#941=CARTESIAN_POINT('',(153.818543681,147.270836581,135.365998675));
#942=CARTESIAN_POINT('',(153.562616007,147.637008948,135.35734213));
#943=CARTESIAN_POINT('',(153.299030471,147.994930279,135.348975892));
#944=CARTESIAN_POINT('',(153.035444934,148.35285161,135.340609655));
#945=CARTESIAN_POINT('',(152.763999283,148.702946931,135.332523066));
#946=CARTESIAN_POINT('',(152.484836735,149.04535882,135.324710225));
#947=CARTESIAN_POINT('',(151.368186542,150.41500638,135.293458858));
#948=CARTESIAN_POINT('',(150.129164522,151.662812832,135.266549732));
#949=CARTESIAN_POINT('',(148.767871053,152.7888773,135.243941241));
#950=CARTESIAN_POINT('',(148.427547686,153.070393416,135.238289118));
#951=CARTESIAN_POINT('',(148.079513731,153.344232334,135.232908205));
#952=CARTESIAN_POINT('',(147.723629427,153.610254888,135.22780298));
#953=CARTESIAN_POINT('',(147.367745123,153.876277441,135.222697755));
#954=CARTESIAN_POINT('',(147.003286983,154.134908932,135.217861085));
#955=CARTESIAN_POINT('',(146.634819889,154.38292444,135.213352661));
#956=CARTESIAN_POINT('',(145.8978857,154.878955456,135.204335813));
#957=CARTESIAN_POINT('',(145.141737092,155.335206451,135.196577751));
#958=CARTESIAN_POINT('',(144.366897303,155.752760648,135.190040886));
#959=CARTESIAN_POINT('',(142.817217724,156.587869042,135.176967157));
#960=CARTESIAN_POINT('',(141.193313015,157.269307383,135.168743245));
#961=CARTESIAN_POINT('',(139.492792094,157.792125161,135.165511553));
#962=CARTESIAN_POINT('',(139.067661864,157.922829605,135.16470363));
#963=CARTESIAN_POINT('',(138.637581186,158.043477949,135.164212919));
#964=CARTESIAN_POINT('',(138.207454992,158.152769044,135.164042831));
#965=CARTESIAN_POINT('',(137.777328799,158.26206014,135.163872743));
#966=CARTESIAN_POINT('',(137.345964651,158.360383514,135.164020446));
#967=CARTESIAN_POINT('',(136.91338289,158.447919388,135.164480593));
#968=CARTESIAN_POINT('',(136.048219369,158.622991136,135.165400887));
#969=CARTESIAN_POINT('',(135.178194003,158.754989127,135.167569117));
#970=CARTESIAN_POINT('',(134.30336128,158.84439607,135.17097206));
#971=CARTESIAN_POINT('',(133.428528557,158.933803013,135.174375002));
#972=CARTESIAN_POINT('',(132.548888622,158.980620189,135.179012484));
#973=CARTESIAN_POINT('',(131.664356536,158.98409503,135.184908493));
#974=CARTESIAN_POINT('',(131.222090494,158.98583245,135.187856498));
#975=CARTESIAN_POINT('',(130.778599236,158.976714997,135.191119599));
#976=CARTESIAN_POINT('',(130.333858257,158.956525535,135.194704535));
#977=CARTESIAN_POINT('',(129.889117277,158.936336072,135.198289472));
#978=CARTESIAN_POINT('',(129.444152787,158.905057942,135.202189736));
#979=CARTESIAN_POINT('',(129.002747385,158.863090645,135.20636874));
#980=CARTESIAN_POINT('',(127.237125776,158.695221454,135.223084756));
#981=CARTESIAN_POINT('',(125.510459715,158.35719842,135.244357121));
#982=CARTESIAN_POINT('',(123.822013279,157.852237826,135.270131621));
#983=CARTESIAN_POINT('',(122.977790062,157.599757528,135.283018871));
#984=CARTESIAN_POINT('',(122.143189525,157.3052468,135.297039432));
#985=CARTESIAN_POINT('',(121.318544943,156.967250256,135.31223788));
#986=CARTESIAN_POINT('',(120.493900362,156.629253712,135.327436329));
#987=CARTESIAN_POINT('',(119.690786001,156.252382016,135.343603129));
#988=CARTESIAN_POINT('',(118.911842928,155.839436857,135.360645576));
#989=CARTESIAN_POINT('',(117.353956781,155.013546537,135.39473047));
#990=CARTESIAN_POINT('',(115.887544529,154.042522046,135.432376559));
#991=CARTESIAN_POINT('',(114.513852066,152.924388345,135.473676159));
#992=CARTESIAN_POINT('',(113.827005834,152.365321494,135.494325958));
#993=CARTESIAN_POINT('',(113.161316138,151.766489277,135.515988676));
#994=CARTESIAN_POINT('',(112.533233158,151.142780296,135.538131741));
#995=CARTESIAN_POINT('',(111.905150178,150.519071315,135.560274806));
#996=CARTESIAN_POINT('',(111.31130523,149.8681687,135.582987121));
#997=CARTESIAN_POINT('',(110.751012622,149.190617227,135.606262124));
#998=CARTESIAN_POINT('',(110.190720015,148.513065753,135.629537126));
#999=CARTESIAN_POINT('',(109.663981633,147.808863917,135.653374602));
#1000=CARTESIAN_POINT('',(109.17108587,147.077782817,135.677783928));
#1001=CARTESIAN_POINT('',(108.924637989,146.712242267,135.689988592));
#1002=CARTESIAN_POINT('',(108.686665715,146.339970019,135.702336327));
#1003=CARTESIAN_POINT('',(108.457298554,145.960863238,135.714829937));
#1004=CARTESIAN_POINT('',(108.227931392,145.581756457,135.727323547));
#1005=CARTESIAN_POINT('',(108.006728786,145.194988727,135.739989804));
#1006=CARTESIAN_POINT('',(107.795355861,144.803156423,135.752743017));
#1007=CARTESIAN_POINT('',(106.949864165,143.235827203,135.80375587));
#1008=CARTESIAN_POINT('',(106.271342764,141.610542258,135.855427042));
#1009=CARTESIAN_POINT('',(105.753728936,139.929406488,135.907749132));
#1010=CARTESIAN_POINT('',(105.494922022,139.088838603,135.933910176));
#1011=CARTESIAN_POINT('',(105.276637634,138.234205387,135.960234783));
#1012=CARTESIAN_POINT('',(105.099898062,137.365152022,135.986727675));
#1013=CARTESIAN_POINT('',(105.011528276,136.930625339,135.999974121));
#1014=CARTESIAN_POINT('',(104.933393369,136.491268168,136.013299365));
#1015=CARTESIAN_POINT('',(104.866394051,136.051578517,136.026566341));
#1016=CARTESIAN_POINT('',(104.799394733,135.611888866,136.039833316));
#1017=CARTESIAN_POINT('',(104.743509962,135.172233559,136.053031418));
#1018=CARTESIAN_POINT('',(104.69852759,134.732611936,136.066161851));
#1019=CARTESIAN_POINT('',(104.518598101,132.974125445,136.118683583));
#1020=CARTESIAN_POINT('',(104.511556333,131.216173157,136.17013362));
#1021=CARTESIAN_POINT('',(104.676667497,129.45875227,136.220498379));
#1022=CARTESIAN_POINT('',(104.717945288,129.019397048,136.233089568));
#1023=CARTESIAN_POINT('',(104.770079291,128.580075337,136.245612291));
#1024=CARTESIAN_POINT('',(104.833256346,128.140787697,136.258064855));
#1025=CARTESIAN_POINT('',(104.896433401,127.701500058,136.270517419));
#1026=CARTESIAN_POINT('',(104.970910974,127.261084632,136.282932227));
#1027=CARTESIAN_POINT('',(105.055829248,126.824883794,136.295157894));
#1028=CARTESIAN_POINT('',(105.225665796,125.952482119,136.319609228));
#1029=CARTESIAN_POINT('',(105.437221574,125.09485685,136.343365231));
#1030=CARTESIAN_POINT('',(105.689292245,124.251581304,136.366441392));
#1031=CARTESIAN_POINT('',(106.193433588,122.565030211,136.412593713));
#1032=CARTESIAN_POINT('',(106.858473621,120.935466871,136.456047254));
#1033=CARTESIAN_POINT('',(107.689035852,119.364527656,136.496679984));
#1034=CARTESIAN_POINT('',(107.896676409,118.971792852,136.506838167));
#1035=CARTESIAN_POINT('',(108.115219022,118.582077888,136.516835248));
#1036=CARTESIAN_POINT('',(108.341922767,118.200242855,136.526545904));
#1037=CARTESIAN_POINT('',(108.568626512,117.818407822,136.536256559));
#1038=CARTESIAN_POINT('',(108.80394459,117.443508621,136.545705491));
#1039=CARTESIAN_POINT('',(109.047728247,117.075425465,136.554896525));
#1040=CARTESIAN_POINT('',(109.53529556,116.339259153,136.573278593));
#1041=CARTESIAN_POINT('',(110.056665309,115.630308812,136.590630829));
#1042=CARTESIAN_POINT('',(110.611403444,114.948224822,136.606960426));
#1043=CARTESIAN_POINT('',(111.166141579,114.266140831,136.623290023));
#1044=CARTESIAN_POINT('',(111.754247631,113.610922825,136.638597468));
#1045=CARTESIAN_POINT('',(112.376254502,112.982999719,136.652860203));
#1046=CARTESIAN_POINT('',(112.687257938,112.669038165,136.659991571));
#1047=CARTESIAN_POINT('',(113.006751631,112.36191246,136.666861476));
#1048=CARTESIAN_POINT('',(113.334897857,112.061753237,136.673464079));
#1049=CARTESIAN_POINT('',(113.663044083,111.761594015,136.680066682));
#1050=CARTESIAN_POINT('',(113.999971659,111.468397417,136.686401251));
#1051=CARTESIAN_POINT('',(114.34180642,111.185440018,136.692397138));
#1052=CARTESIAN_POINT('',(115.709145466,110.053610421,136.716380683));
#1053=CARTESIAN_POINT('',(117.168731833,109.070457326,136.735297314));
#1054=CARTESIAN_POINT('',(118.718511493,108.232669626,136.749227429));
#1055=CARTESIAN_POINT('',(119.493401323,107.813775775,136.756192486));
#1056=CARTESIAN_POINT('',(120.291000417,107.431482676,136.76190266));
#1057=CARTESIAN_POINT('',(121.112053779,107.086991002,136.766313787));
#1058=CARTESIAN_POINT('',(121.52258046,106.914745164,136.76851935));
#1059=CARTESIAN_POINT('',(121.93808965,106.752411236,136.770392703));
#1060=CARTESIAN_POINT('',(122.354955209,106.601264911,136.771921552));
#1061=CARTESIAN_POINT('',(122.771820769,106.450118587,136.773450401));
#1062=CARTESIAN_POINT('',(123.191064309,106.309721951,136.774640389));
#1063=CARTESIAN_POINT('',(123.612648975,106.179908403,136.77549683));
#1064=CARTESIAN_POINT('',(125.298987638,105.660654207,136.778922593));
#1065=CARTESIAN_POINT('',(127.022449757,105.309217045,136.777055732));
#1066=CARTESIAN_POINT('',(128.783406338,105.127274038,136.769846998));
#1067=CARTESIAN_POINT('',(129.663884628,105.036302535,136.76624263));
#1068=CARTESIAN_POINT('',(130.558189906,104.988285362,136.761253809));
#1069=CARTESIAN_POINT('',(131.444289666,104.984544035,136.755001522));
#1070=CARTESIAN_POINT('',(132.330389426,104.980802707,136.748749235));
#1071=CARTESIAN_POINT('',(133.211247996,105.020597752,136.741234028));
#1072=CARTESIAN_POINT('',(134.08698008,105.102976708,136.732487258));
#1073=CARTESIAN_POINT('',(135.838444246,105.267734621,136.714993718));
#1074=CARTESIAN_POINT('',(137.570654154,105.601897356,136.692590116));
#1075=CARTESIAN_POINT('',(139.279406944,106.111840351,136.665155077));
#1076=CARTESIAN_POINT('',(140.988159735,106.621783347,136.637720038));
#1077=CARTESIAN_POINT('',(142.618609582,107.290907616,136.606141576));
#1078=CARTESIAN_POINT('',(144.173890799,108.112843438,136.570630595));
#1079=CARTESIAN_POINT('',(144.951531407,108.523811348,136.552875104));
#1080=CARTESIAN_POINT('',(145.710240428,108.97326559,136.534129034));
#1081=CARTESIAN_POINT('',(146.449577219,109.46210222,136.5143754));
#1082=CARTESIAN_POINT('',(146.819245615,109.706520534,136.504498583));
#1083=CARTESIAN_POINT('',(147.184726158,109.961295565,136.494350107));
#1084=CARTESIAN_POINT('',(147.543691963,110.225008752,136.483989365));
#1085=CARTESIAN_POINT('',(147.902657768,110.488721938,136.473628623));
#1086=CARTESIAN_POINT('',(148.254036788,110.760529799,136.463088186));
#1087=CARTESIAN_POINT('',(148.597935076,111.040319211,136.452371323));
#1088=CARTESIAN_POINT('',(149.973528225,112.159476859,136.409503869));
#1089=CARTESIAN_POINT('',(151.230515866,113.405180385,136.363839229));
#1090=CARTESIAN_POINT('',(152.366882557,114.77958171,136.315371623));
#1091=B_SPLINE_CURVE_WITH_KNOTS('',3,(#904,#905,#906,#907,#908,#909,#910,#911,#912,#913,#914,#915,#916,#917,#918,#919,#920,#921,#922,#923,#924,#925,#926,#927,#928,#929,
#930,#931,#932,#933,#934,#935,#936,#937,#938,#939,#940,#941,#942,#943,#944,#945,#946,#947,#948,#949,#950,#951,#952,#953,#954,
#955,#956,#957,#958,#959,#960,#961,#962,#963,#964,#965,#966,#967,#968,#969,#970,#971,#972,#973,#974,#975,#976,#977,#978,#979,
#980,#981,#982,#983,#984,#985,#986,#987,#988,#989,#990,#991,#992,#993,#994,#995,#996,#997,#998,#999,#1000,#1001,#1002,#1003,#1004,
#1005,#1006,#1007,#1008,#1009,#1010,#1011,#1012,#1013,#1014,#1015,#1016,#1017,#1018,#1019,#1020,#1021,#1022,#1023,#1024,#1025,#1026,#1027,#1028,#1029,
#1030,#1031,#1032,#1033,#1034,#1035,#1036,#1037,#1038,#1039,#1040,#1041,#1042,#1043,#1044,#1045,#1046,#1047,#1048,#1049,#1050,#1051,#1052,#1053,#1054,
#1055,#1056,#1057,#1058,#1059,#1060,#1061,#1062,#1063,#1064,#1065,#1066,#1067,#1068,#1069,#1070,#1071,#1072,#1073,#1074,#1075,#1076,#1077,#1078,#1079,
#1080,#1081,#1082,#1083,#1084,#1085,#1086,#1087,#1088,#1089,#1090),.UNSPECIFIED.,.T.,.F.,(4,3,3,3,3,3,3,3,3,3,3,3,3,3,3,3,3,3,3,3,3,3,3,3,3,3,
3,3,3,3,3,3,3,3,3,3,3,3,3,3,3,3,3,3,3,3,3,3,3,3,3,
3,3,3,3,3,3,3,3,3,3,3,4),(0.,0.005294616,0.007941923,0.010589231,0.015883847,0.017207501,0.018531154,0.021178462,0.02382577,0.025149424,0.026473078,0.031767693,0.034415001,0.035738655,0.037062309,0.042356924,0.043680578,0.045004232,0.04765154,0.052946155,0.054269809,0.055593463,0.058240771,0.060888079,0.062211733,0.063535387,
0.068830002,0.07147731,0.074124618,0.079419233,0.082066541,0.084713849,0.087361156,0.08868481,0.090008464,0.09530308,0.097950388,0.099274041,0.100597695,0.105892311,0.107215965,0.108539619,0.111186926,0.116481542,0.117805196,0.11912885,0.121776158,0.124423465,0.125747119,0.127070773,0.132365389,
0.135012696,0.13633635,0.137660004,0.14295462,0.145601927,0.148249235,0.153543851,0.158838466,0.161485774,0.162809428,0.164133082,0.169427697),.UNSPECIFIED.);
#1092=EDGE_CURVE('',#713,#496,#1091,.T.);
#1093=ORIENTED_EDGE('',*,*,#1092,.T.);
#1094=EDGE_LOOP('',(#502,#511,#518,#519,#711,#903,#1093));
#1095=FACE_BOUND('',#1094,.T.);
#1096=CARTESIAN_POINT('',(138.02632662,158.198125933,43.));
#1097=VERTEX_POINT('',#1096);
#1098=CARTESIAN_POINT('',(122.736502645,157.502455338,43.));
#1099=VERTEX_POINT('',#1098);
#1100=CARTESIAN_POINT('',(131.558289316,131.984303369,43.));
#1101=DIRECTION('',(0.,0.,1.));
#1102=DIRECTION('',(1.,0.,-0.));
#1103=AXIS2_PLACEMENT_3D('',#1100,#1101,#1102);
#1104=CIRCLE('',#1103,27.);
#1105=EDGE_CURVE('',#1097,#1099,#1104,.T.);
#1106=ORIENTED_EDGE('',*,*,#1105,.T.);
#1107=CARTESIAN_POINT('',(122.736502645,157.502455338,68.));
#1108=VERTEX_POINT('',#1107);
#1109=CARTESIAN_POINT('',(122.736502645,157.502455338,43.));
#1110=DIRECTION('',(-0.,-0.,1.));
#1111=VECTOR('',#1110,25.);
#1112=LINE('',#1109,#1111);
#1113=EDGE_CURVE('',#1099,#1108,#1112,.T.);
#1114=ORIENTED_EDGE('',*,*,#1113,.T.);
#1115=CARTESIAN_POINT('',(138.02632662,158.198125933,68.));
#1116=VERTEX_POINT('',#1115);
#1117=CARTESIAN_POINT('',(131.558289316,131.984303369,68.));
#1118=DIRECTION('',(0.,0.,-1.));
#1119=DIRECTION('',(-1.,0.,0.));
#1120=AXIS2_PLACEMENT_3D('',#1117,#1118,#1119);
#1121=CIRCLE('',#1120,27.);
#1122=EDGE_CURVE('',#1108,#1116,#1121,.T.);
#1123=ORIENTED_EDGE('',*,*,#1122,.T.);
#1124=CARTESIAN_POINT('',(138.02632662,158.198125933,68.));
#1125=DIRECTION('',(0.,0.,-1.));
#1126=VECTOR('',#1125,25.);
#1127=LINE('',#1124,#1126);
#1128=EDGE_CURVE('',#1116,#1097,#1127,.T.);
#1129=ORIENTED_EDGE('',*,*,#1128,.T.);
#1130=EDGE_LOOP('',(#1106,#1114,#1123,#1129));
#1131=FACE_BOUND('',#1130,.T.);
#1132=ADVANCED_FACE('',(#1095,#1131),#492,.F.);
#1133=CARTESIAN_POINT('',(0.,0.,0.));
#1134=DIRECTION('',(0.,0.,1.));
#1135=DIRECTION('',(1.,0.,0.));
#1136=AXIS2_PLACEMENT_3D('',#1133,#1134,#1135);
#1137=PLANE('',#1136);
#1138=ORIENTED_EDGE('',*,*,#440,.F.);
#1139=ORIENTED_EDGE('',*,*,#447,.F.);
#1140=EDGE_LOOP('',(#1138,#1139));
#1141=FACE_BOUND('',#1140,.T.);
#1142=ADVANCED_FACE('',(#1141),#1137,.F.);
#1143=CARTESIAN_POINT('',(0.,0.,8.));
#1144=DIRECTION('',(0.,0.,1.));
#1145=DIRECTION('',(1.,0.,0.));
#1146=AXIS2_PLACEMENT_3D('',#1143,#1144,#1145);
#1147=PLANE('',#1146);
#1148=ORIENTED_EDGE('',*,*,#510,.F.);
#1149=ORIENTED_EDGE('',*,*,#517,.F.);
#1150=EDGE_LOOP('',(#1148,#1149));
#1151=FACE_BOUND('',#1150,.T.);
#1152=ADVANCED_FACE('',(#1151),#1147,.T.);
#1153=CARTESIAN_POINT('',(122.481025657,155.86435114,55.5));
#1154=DIRECTION('',(0.988055858,-0.154096141,0.));
#1155=DIRECTION('',(0.154096141,0.988055858,0.));
#1156=AXIS2_PLACEMENT_3D('',#1153,#1154,#1155);
#1157=PLANE('',#1156);
#1158=ORIENTED_EDGE('',*,*,#459,.T.);
#1159=CARTESIAN_POINT('',(122.736502645,157.502455338,68.));
#1160=DIRECTION('',(0.154096141,0.988055858,0.));
#1161=VECTOR('',#1160,5.8487472);
#1162=LINE('',#1159,#1161);
#1163=EDGE_CURVE('',#1108,#454,#1162,.T.);
#1164=ORIENTED_EDGE('',*,*,#1163,.F.);
#1165=ORIENTED_EDGE('',*,*,#1113,.F.);
#1166=CARTESIAN_POINT('',(122.736502645,157.502455338,43.));
#1167=DIRECTION('',(0.154096141,0.988055858,0.));
#1168=VECTOR('',#1167,5.8487472);
#1169=LINE('',#1166,#1168);
#1170=EDGE_CURVE('',#1099,#452,#1169,.T.);
#1171=ORIENTED_EDGE('',*,*,#1170,.T.);
#1172=EDGE_LOOP('',(#1158,#1164,#1165,#1171));
#1173=FACE_BOUND('',#1172,.T.);
#1174=ADVANCED_FACE('',(#1173),#1157,.T.);
#1175=CARTESIAN_POINT('',(129.891444596,154.708630086,68.));
#1176=DIRECTION('',(0.,0.,-1.));
#1177=DIRECTION('',(-1.,0.,0.));
#1178=AXIS2_PLACEMENT_3D('',#1175,#1176,#1177);
#1179=PLANE('',#1178);
#1180=ORIENTED_EDGE('',*,*,#483,.T.);
#1181=CARTESIAN_POINT('',(138.02632662,158.198125933,68.));
#1182=DIRECTION('',(0.154096141,0.988055858,0.));
#1183=VECTOR('',#1182,5.210032344);
#1184=LINE('',#1181,#1183);
#1185=EDGE_CURVE('',#1116,#471,#1184,.T.);
#1186=ORIENTED_EDGE('',*,*,#1185,.F.);
#1187=ORIENTED_EDGE('',*,*,#1122,.F.);
#1188=ORIENTED_EDGE('',*,*,#1163,.T.);
#1189=EDGE_LOOP('',(#1180,#1186,#1187,#1188));
#1190=FACE_BOUND('',#1189,.T.);
#1191=ADVANCED_FACE('',(#1190),#1179,.T.);
#1192=CARTESIAN_POINT('',(137.301863535,153.552909032,55.5));
#1193=DIRECTION('',(-0.988055858,0.154096141,0.));
#1194=DIRECTION('',(-0.154096141,-0.988055858,0.));
#1195=AXIS2_PLACEMENT_3D('',#1192,#1193,#1194);
#1196=PLANE('',#1195);
#1197=ORIENTED_EDGE('',*,*,#476,.T.);
#1198=CARTESIAN_POINT('',(138.02632662,158.198125933,43.));
#1199=DIRECTION('',(0.154096141,0.988055858,0.));
#1200=VECTOR('',#1199,5.210032344);
#1201=LINE('',#1198,#1200);
#1202=EDGE_CURVE('',#1097,#462,#1201,.T.);
#1203=ORIENTED_EDGE('',*,*,#1202,.F.);
#1204=ORIENTED_EDGE('',*,*,#1128,.F.);
#1205=ORIENTED_EDGE('',*,*,#1185,.T.);
#1206=EDGE_LOOP('',(#1197,#1203,#1204,#1205));
#1207=FACE_BOUND('',#1206,.T.);
#1208=ADVANCED_FACE('',(#1207),#1196,.T.);
#1209=CARTESIAN_POINT('',(129.891444596,154.708630086,43.));
#1210=DIRECTION('',(0.,0.,1.));
#1211=DIRECTION('',(1.,0.,0.));
#1212=AXIS2_PLACEMENT_3D('',#1209,#1210,#1211);
#1213=PLANE('',#1212);
#1214=ORIENTED_EDGE('',*,*,#468,.T.);
#1215=ORIENTED_EDGE('',*,*,#1170,.F.);
#1216=ORIENTED_EDGE('',*,*,#1105,.F.);
#1217=ORIENTED_EDGE('',*,*,#1202,.T.);
#1218=EDGE_LOOP('',(#1214,#1215,#1216,#1217));
#1219=FACE_BOUND('',#1218,.T.);
#1220=ADVANCED_FACE('',(#1219),#1213,.T.);
#1221=CARTESIAN_POINT('',(131.37,131.2,128.485281374));
#1222=DIRECTION('',(0.,0.,-1.));
#1223=DIRECTION('',(-1.,0.,0.));
#1224=AXIS2_PLACEMENT_3D('',#1221,#1222,#1223);
#1225=CONICAL_SURFACE('',#1224,34.485281374,45.);
#1226=CARTESIAN_POINT('',(98.37,131.2,129.970562748));
#1227=DIRECTION('',(0.707106781,-0.,0.707106781));
#1228=VECTOR('',#1227,8.767505458);
#1229=LINE('',#1226,#1228);
#1230=EDGE_CURVE('',#418,#521,#1229,.T.);
#1231=ORIENTED_EDGE('',*,*,#1230,.T.);
#1232=ORIENTED_EDGE('',*,*,#710,.F.);
#1233=ORIENTED_EDGE('',*,*,#1092,.F.);
#1234=ORIENTED_EDGE('',*,*,#902,.F.);
#1235=ORIENTED_EDGE('',*,*,#1230,.F.);
#1236=ORIENTED_EDGE('',*,*,#430,.F.);
#1237=EDGE_LOOP('',(#1231,#1232,#1233,#1234,#1235,#1236));
#1238=FACE_BOUND('',#1237,.T.);
#1239=ADVANCED_FACE('',(#1238),#1225,.T.);
#1240=CLOSED_SHELL('',(#487,#1132,#1142,#1152,#1174,#1191,#1208,#1220,#1239));
#1241=MANIFOLD_SOLID_BREP('Body 04',#1240);
#409=STYLED_ITEM('',(#183),#1241);
#1243=CARTESIAN_POINT('',(141.692595601,119.235348175,72.990135859));
#1244=DIRECTION('',(0.,0.,-1.));
#1245=DIRECTION('',(-1.,0.,0.));
#1246=AXIS2_PLACEMENT_3D('',#1243,#1244,#1245);
#1247=CYLINDRICAL_SURFACE('',#1246,9.);
#1248=CARTESIAN_POINT('',(132.692595601,119.235348175,7.990135859));
#1249=VERTEX_POINT('',#1248);
#1250=CARTESIAN_POINT('',(132.692595601,119.235348175,72.990135859));
#1251=VERTEX_POINT('',#1250);
#1252=CARTESIAN_POINT('',(132.692595601,119.235348175,7.990135859));
#1253=DIRECTION('',(-0.,-0.,1.));
#1254=VECTOR('',#1253,65.);
#1255=LINE('',#1252,#1254);
#1256=EDGE_CURVE('',#1249,#1251,#1255,.T.);
#1257=ORIENTED_EDGE('',*,*,#1256,.T.);
#1258=CARTESIAN_POINT('',(150.692595601,119.235348175,72.990135859));
#1259=VERTEX_POINT('',#1258);
#1260=CARTESIAN_POINT('',(141.692595601,119.235348175,72.990135859));
#1261=DIRECTION('',(0.,0.,1.));
#1262=DIRECTION('',(1.,-0.,0.));
#1263=AXIS2_PLACEMENT_3D('',#1260,#1261,#1262);
#1264=CIRCLE('',#1263,9.);
#1265=EDGE_CURVE('',#1259,#1251,#1264,.T.);
#1266=ORIENTED_EDGE('',*,*,#1265,.F.);
#1267=CARTESIAN_POINT('',(141.692595601,119.235348175,72.990135859));
#1268=DIRECTION('',(0.,0.,1.));
#1269=DIRECTION('',(1.,-0.,0.));
#1270=AXIS2_PLACEMENT_3D('',#1267,#1268,#1269);
#1271=CIRCLE('',#1270,9.);
#1272=EDGE_CURVE('',#1251,#1259,#1271,.T.);
#1273=ORIENTED_EDGE('',*,*,#1272,.F.);
#1274=ORIENTED_EDGE('',*,*,#1256,.F.);
#1275=CARTESIAN_POINT('',(150.692595601,119.235348175,7.990135859));
#1276=VERTEX_POINT('',#1275);
#1277=CARTESIAN_POINT('',(141.692595601,119.235348175,7.990135859));
#1278=DIRECTION('',(0.,0.,1.));
#1279=DIRECTION('',(1.,-0.,0.));
#1280=AXIS2_PLACEMENT_3D('',#1277,#1278,#1279);
#1281=CIRCLE('',#1280,9.);
#1282=EDGE_CURVE('',#1249,#1276,#1281,.T.);
#1283=ORIENTED_EDGE('',*,*,#1282,.T.);
#1284=CARTESIAN_POINT('',(141.692595601,119.235348175,7.990135859));
#1285=DIRECTION('',(0.,0.,1.));
#1286=DIRECTION('',(1.,-0.,0.));
#1287=AXIS2_PLACEMENT_3D('',#1284,#1285,#1286);
#1288=CIRCLE('',#1287,9.);
#1289=EDGE_CURVE('',#1276,#1249,#1288,.T.);
#1290=ORIENTED_EDGE('',*,*,#1289,.T.);
#1291=EDGE_LOOP('',(#1257,#1266,#1273,#1274,#1283,#1290));
#1292=FACE_BOUND('',#1291,.T.);
#1293=ADVANCED_FACE('',(#1292),#1247,.T.);
#1294=CARTESIAN_POINT('',(129.669386868,112.576417753,72.990135859));
#1295=DIRECTION('',(0.,0.,1.));
#1296=DIRECTION('',(1.,0.,0.));
#1297=AXIS2_PLACEMENT_3D('',#1294,#1295,#1296);
#1298=PLANE('',#1297);
#1299=ORIENTED_EDGE('',*,*,#1265,.T.);
#1300=ORIENTED_EDGE('',*,*,#1272,.T.);
#1301=EDGE_LOOP('',(#1299,#1300));
#1302=FACE_BOUND('',#1301,.T.);
#1303=ADVANCED_FACE('',(#1302),#1298,.T.);
#1304=CARTESIAN_POINT('',(129.669386868,112.576417753,7.990135859));
#1305=DIRECTION('',(0.,0.,1.));
#1306=DIRECTION('',(1.,0.,0.));
#1307=AXIS2_PLACEMENT_3D('',#1304,#1305,#1306);
#1308=PLANE('',#1307);
#1309=ORIENTED_EDGE('',*,*,#1282,.F.);
#1310=ORIENTED_EDGE('',*,*,#1289,.F.);
#1311=EDGE_LOOP('',(#1309,#1310));
#1312=FACE_BOUND('',#1311,.T.);
#1313=ADVANCED_FACE('',(#1312),#1308,.F.);
#1314=CLOSED_SHELL('',(#1293,#1303,#1313));
#1315=MANIFOLD_SOLID_BREP('Body 01 (2)',#1314);
#1242=STYLED_ITEM('',(#183),#1315);
#1317=CARTESIAN_POINT('',(61.730390896,95.704938614,64.677270078));
#1318=DIRECTION('',(0.,0.,-1.));
#1319=DIRECTION('',(-1.,0.,0.));
#1320=AXIS2_PLACEMENT_3D('',#1317,#1318,#1319);
#1321=CYLINDRICAL_SURFACE('',#1320,9.);
#1322=CARTESIAN_POINT('',(52.730390896,95.704938614,-0.322729922));
#1323=VERTEX_POINT('',#1322);
#1324=CARTESIAN_POINT('',(52.730390896,95.704938614,64.677270078));
#1325=VERTEX_POINT('',#1324);
#1326=CARTESIAN_POINT('',(52.730390896,95.704938614,-0.322729922));
#1327=DIRECTION('',(-0.,-0.,1.));
#1328=VECTOR('',#1327,65.);
#1329=LINE('',#1326,#1328);
#1330=EDGE_CURVE('',#1323,#1325,#1329,.T.);
#1331=ORIENTED_EDGE('',*,*,#1330,.T.);
#1332=CARTESIAN_POINT('',(70.730390896,95.704938614,64.677270078));
#1333=VERTEX_POINT('',#1332);
#1334=CARTESIAN_POINT('',(61.730390896,95.704938614,64.677270078));
#1335=DIRECTION('',(0.,0.,1.));
#1336=DIRECTION('',(1.,-0.,0.));
#1337=AXIS2_PLACEMENT_3D('',#1334,#1335,#1336);
#1338=CIRCLE('',#1337,9.);
#1339=EDGE_CURVE('',#1333,#1325,#1338,.T.);
#1340=ORIENTED_EDGE('',*,*,#1339,.F.);
#1341=CARTESIAN_POINT('',(61.730390896,95.704938614,64.677270078));
#1342=DIRECTION('',(0.,0.,1.));
#1343=DIRECTION('',(1.,-0.,0.));
#1344=AXIS2_PLACEMENT_3D('',#1341,#1342,#1343);
#1345=CIRCLE('',#1344,9.);
#1346=EDGE_CURVE('',#1325,#1333,#1345,.T.);
#1347=ORIENTED_EDGE('',*,*,#1346,.F.);
#1348=ORIENTED_EDGE('',*,*,#1330,.F.);
#1349=CARTESIAN_POINT('',(70.730390896,95.704938614,-0.322729922));
#1350=VERTEX_POINT('',#1349);
#1351=CARTESIAN_POINT('',(61.730390896,95.704938614,-0.322729922));
#1352=DIRECTION('',(0.,0.,1.));
#1353=DIRECTION('',(1.,-0.,0.));
#1354=AXIS2_PLACEMENT_3D('',#1351,#1352,#1353);
#1355=CIRCLE('',#1354,9.);
#1356=EDGE_CURVE('',#1323,#1350,#1355,.T.);
#1357=ORIENTED_EDGE('',*,*,#1356,.T.);
#1358=CARTESIAN_POINT('',(61.730390896,95.704938614,-0.322729922));
#1359=DIRECTION('',(0.,0.,1.));
#1360=DIRECTION('',(1.,-0.,0.));
#1361=AXIS2_PLACEMENT_3D('',#1358,#1359,#1360);
#1362=CIRCLE('',#1361,9.);
#1363=EDGE_CURVE('',#1350,#1323,#1362,.T.);
#1364=ORIENTED_EDGE('',*,*,#1363,.T.);
#1365=EDGE_LOOP('',(#1331,#1340,#1347,#1348,#1357,#1364));
#1366=FACE_BOUND('',#1365,.T.);
#1367=ADVANCED_FACE('',(#1366),#1321,.T.);
#1368=CARTESIAN_POINT('',(49.707182163,89.046008191,64.677270078));
#1369=DIRECTION('',(0.,0.,1.));
#1370=DIRECTION('',(1.,0.,0.));
#1371=AXIS2_PLACEMENT_3D('',#1368,#1369,#1370);
#1372=PLANE('',#1371);
#1373=ORIENTED_EDGE('',*,*,#1339,.T.);
#1374=ORIENTED_EDGE('',*,*,#1346,.T.);
#1375=EDGE_LOOP('',(#1373,#1374));
#1376=FACE_BOUND('',#1375,.T.);
#1377=ADVANCED_FACE('',(#1376),#1372,.T.);
#1378=CARTESIAN_POINT('',(49.707182163,89.046008191,-0.322729922));
#1379=DIRECTION('',(0.,0.,1.));
#1380=DIRECTION('',(1.,0.,0.));
#1381=AXIS2_PLACEMENT_3D('',#1378,#1379,#1380);
#1382=PLANE('',#1381);
#1383=ORIENTED_EDGE('',*,*,#1356,.F.);
#1384=ORIENTED_EDGE('',*,*,#1363,.F.);
#1385=EDGE_LOOP('',(#1383,#1384));
#1386=FACE_BOUND('',#1385,.T.);
#1387=ADVANCED_FACE('',(#1386),#1382,.F.);
#1388=CLOSED_SHELL('',(#1367,#1377,#1387));
#1389=MANIFOLD_SOLID_BREP('Body 01 (1)',#1388);
#1316=STYLED_ITEM('',(#183),#1389);
#1391=CARTESIAN_POINT('',(74.671457099,143.630352125,65.070939406));
#1392=DIRECTION('',(0.,0.,-1.));
#1393=DIRECTION('',(-1.,0.,0.));
#1394=AXIS2_PLACEMENT_3D('',#1391,#1392,#1393);
#1395=CYLINDRICAL_SURFACE('',#1394,9.);
#1396=CARTESIAN_POINT('',(65.671457099,143.630352125,0.070939406));
#1397=VERTEX_POINT('',#1396);
#1398=CARTESIAN_POINT('',(65.671457099,143.630352125,65.070939406));
#1399=VERTEX_POINT('',#1398);
#1400=CARTESIAN_POINT('',(65.671457099,143.630352125,0.070939406));
#1401=DIRECTION('',(-0.,-0.,1.));
#1402=VECTOR('',#1401,65.);
#1403=LINE('',#1400,#1402);
#1404=EDGE_CURVE('',#1397,#1399,#1403,.T.);
#1405=ORIENTED_EDGE('',*,*,#1404,.T.);
#1406=CARTESIAN_POINT('',(83.671457099,143.630352125,65.070939406));
#1407=VERTEX_POINT('',#1406);
#1408=CARTESIAN_POINT('',(74.671457099,143.630352125,65.070939406));
#1409=DIRECTION('',(0.,0.,1.));
#1410=DIRECTION('',(1.,-0.,0.));
#1411=AXIS2_PLACEMENT_3D('',#1408,#1409,#1410);
#1412=CIRCLE('',#1411,9.);
#1413=EDGE_CURVE('',#1407,#1399,#1412,.T.);
#1414=ORIENTED_EDGE('',*,*,#1413,.F.);
#1415=CARTESIAN_POINT('',(74.671457099,143.630352125,65.070939406));
#1416=DIRECTION('',(0.,0.,1.));
#1417=DIRECTION('',(1.,-0.,0.));
#1418=AXIS2_PLACEMENT_3D('',#1415,#1416,#1417);
#1419=CIRCLE('',#1418,9.);
#1420=EDGE_CURVE('',#1399,#1407,#1419,.T.);
#1421=ORIENTED_EDGE('',*,*,#1420,.F.);
#1422=ORIENTED_EDGE('',*,*,#1404,.F.);
#1423=CARTESIAN_POINT('',(83.671457099,143.630352125,0.070939406));
#1424=VERTEX_POINT('',#1423);
#1425=CARTESIAN_POINT('',(74.671457099,143.630352125,0.070939406));
#1426=DIRECTION('',(0.,0.,1.));
#1427=DIRECTION('',(1.,-0.,0.));
#1428=AXIS2_PLACEMENT_3D('',#1425,#1426,#1427);
#1429=CIRCLE('',#1428,9.);
#1430=EDGE_CURVE('',#1397,#1424,#1429,.T.);
#1431=ORIENTED_EDGE('',*,*,#1430,.T.);
#1432=CARTESIAN_POINT('',(74.671457099,143.630352125,0.070939406));
#1433=DIRECTION('',(0.,0.,1.));
#1434=DIRECTION('',(1.,-0.,0.));
#1435=AXIS2_PLACEMENT_3D('',#1432,#1433,#1434);
#1436=CIRCLE('',#1435,9.);
#1437=EDGE_CURVE('',#1424,#1397,#1436,.T.);
#1438=ORIENTED_EDGE('',*,*,#1437,.T.);
#1439=EDGE_LOOP('',(#1405,#1414,#1421,#1422,#1431,#1438));
#1440=FACE_BOUND('',#1439,.T.);
#1441=ADVANCED_FACE('',(#1440),#1395,.T.);
#1442=CARTESIAN_POINT('',(62.648248366,136.971421703,65.070939406));
#1443=DIRECTION('',(0.,0.,1.));
#1444=DIRECTION('',(1.,0.,0.));
#1445=AXIS2_PLACEMENT_3D('',#1442,#1443,#1444);
#1446=PLANE('',#1445);
#1447=ORIENTED_EDGE('',*,*,#1413,.T.);
#1448=ORIENTED_EDGE('',*,*,#1420,.T.);
#1449=EDGE_LOOP('',(#1447,#1448));
#1450=FACE_BOUND('',#1449,.T.);
#1451=ADVANCED_FACE('',(#1450),#1446,.T.);
#1452=CARTESIAN_POINT('',(62.648248366,136.971421703,0.070939406));
#1453=DIRECTION('',(0.,0.,1.));
#1454=DIRECTION('',(1.,0.,0.));
#1455=AXIS2_PLACEMENT_3D('',#1452,#1453,#1454);
#1456=PLANE('',#1455);
#1457=ORIENTED_EDGE('',*,*,#1430,.F.);
#1458=ORIENTED_EDGE('',*,*,#1437,.F.);
#1459=EDGE_LOOP('',(#1457,#1458));
#1460=FACE_BOUND('',#1459,.T.);
#1461=ADVANCED_FACE('',(#1460),#1456,.F.);
#1462=CLOSED_SHELL('',(#1441,#1451,#1461));
#1463=MANIFOLD_SOLID_BREP('Body 01',#1462);
#1390=STYLED_ITEM('',(#183),#1463);
#16=SHAPE_REPRESENTATION('root',(#15),#10);
#17=ADVANCED_BREP_SHAPE_REPRESENTATION('root',(#176,#257,#408,#1241,#1315,#1389,#1463),#10);
#1471=SHAPE_REPRESENTATION_RELATIONSHIP('','',#16,#17);
#1472=CARTESIAN_POINT('',(0.,0.,0.));
#1473=DIRECTION('',(0.,0.,1.));
#1474=DIRECTION('',(1.,0.,0.));
#1475=AXIS2_PLACEMENT_3D('',#1472,#1473,#1474);
#1477=MAPPED_ITEM('',#1476,#1475);
#1476=REPRESENTATION_MAP(#1475,#16);
#1478=APPLICATION_CONTEXT('Managed model based 3d engineering');
#1479=APPLICATION_PROTOCOL_DEFINITION('international standard','ap242_managed_model_based_3d_engineering',2014,#1478);
#1480=PRODUCT_CONTEXT('',#1478,'mechanical');
#1481=PRODUCT_DEFINITION_CONTEXT('part definition',#1478,'design');
#24=PRODUCT('root','root','',(#1480));
#1482=PRODUCT_RELATED_PRODUCT_CATEGORY('part','',(#24));
#1483=PRODUCT_DEFINITION_FORMATION_WITH_SPECIFIED_SOURCE('','',#24,.NOT_KNOWN.);
#25=PRODUCT_DEFINITION('design','',#1483,#1481);
#23=PRODUCT_DEFINITION_SHAPE('','',#25);
#1484=SHAPE_DEFINITION_REPRESENTATION(#23,#16);
#11=DRAUGHTING_MODEL('',(#1477),#10);
#1485=DESCRIPTIVE_REPRESENTATION_ITEM('KEY','/private/var/mobile/Containers/Data/Application/96EA6774-B8AA-4A85-BAF3-DC6709B29A81/tmp/1E9C2CF2-28E9-49BD-B07D-11FD1CDD6FF9.tmp');
#1486=PROPERTY_DEFINITION('KEY','',#25);
#1487=REPRESENTATION('',(#1485),#10);
#1488=PROPERTY_DEFINITION_REPRESENTATION(#1486,#1487);
#1489=GENERAL_PROPERTY('','KEY','');
#1490=GENERAL_PROPERTY_ASSOCIATION('','',#1489,#1486);
#1=MECHANICAL_DESIGN_GEOMETRIC_PRESENTATION_REPRESENTATION('',(#26,#184,#258,#409,#1242,#1316,#1390),#10);
ENDSEC;
END-ISO-10303-21;
